# Blender v2.81 (sub 16) OBJ File: ''
# www.blender.org
mtllib DangerObject.mtl
o Cube
v 0.220458 0.994707 -1.000000
v 0.221372 0.553792 -6.749608
v 1.000000 1.000000 1.000000
v 1.000000 -1.000000 1.000000
v -0.220458 0.994707 -1.000000
v -0.221372 0.553792 -6.749608
v -1.000000 1.000000 1.000000
v -1.000000 -1.000000 1.000000
v 1.000000 -1.000000 -1.000000
v -1.000000 -1.000000 -1.000000
v 1.000000 1.000000 -1.000000
v -1.000000 1.000000 -1.000000
v 0.220458 0.994707 -7.173477
v 0.220458 0.553792 -7.173477
v -0.220458 0.994707 -7.173477
v -0.220458 0.553792 -7.173477
v 0.221372 0.553792 -7.161440
v -0.221372 0.553792 -7.161440
v 0.220458 0.994707 -7.173477
v -0.220458 0.994707 -7.173477
v 0.220458 0.553792 -1.000000
v -0.220458 0.553792 -1.000000
v 0.220458 0.553792 -7.173477
v -0.220458 0.553792 -7.173477
v 0.404103 -0.177647 -6.601228
v -0.404103 -0.177647 -6.601228
v 0.404103 -0.177647 -7.309823
v -0.404103 -0.177647 -7.309823
v 0.221372 -0.177647 -6.749608
v -0.221372 -0.177647 -6.749608
v 0.221372 -0.177647 -7.161440
v -0.221372 -0.177647 -7.161440
v 0.404103 -0.622417 -6.601228
v -0.404103 -0.622417 -6.601228
v 0.404103 -0.622417 -7.309823
v -0.404103 -0.622417 -7.309823
v 0.404103 -0.880079 -6.601228
v -0.404103 -0.880079 -6.601228
v 0.404103 -0.880079 -7.309823
v -0.404103 -0.880079 -7.309823
vt 0.472443 0.347443
vt 0.527557 0.347443
vt 0.527557 0.402557
vt 0.472443 0.402557
vt 0.472443 0.402557
vt 0.472443 0.347443
vt 0.472443 0.402557
vt 0.472443 0.402557
vt 0.527557 0.347443
vt 0.527557 0.347443
vt 0.527557 0.347443
vt 0.527557 0.402557
vt 0.472443 0.389557
vt 0.472443 0.360443
vt 0.472443 0.360443
vt 0.472443 0.347443
vt 0.472443 0.360443
vt 0.472443 0.360443
vt 0.472443 0.389557
vt 0.625000 0.500000
vt 0.875000 0.500000
vt 0.875000 0.750000
vt 0.625000 0.750000
vt 0.375000 0.750000
vt 0.625000 1.000000
vt 0.375000 1.000000
vt 0.375000 0.000000
vt 0.625000 0.000000
vt 0.625000 0.250000
vt 0.375000 0.250000
vt 0.125000 0.500000
vt 0.375000 0.500000
vt 0.125000 0.750000
vt 0.527557 0.402557
vt 0.472443 0.402557
vt 0.527557 0.347443
vt 0.472443 0.389557
vt 0.472443 0.389557
vt 0.472443 0.367766
vt 0.472443 0.367766
vt 0.472443 0.367766
vt 0.472443 0.367766
vt 0.472443 0.382234
vt 0.472443 0.382234
vt 0.472443 0.382234
vt 0.472443 0.382234
vt 0.472443 0.382234
vt 0.472443 0.382234
vt 0.472443 0.367766
vt 0.472443 0.367766
vn 0.0000 0.0000 -1.0000
vn 0.0000 0.0000 1.0000
vn 0.0000 -1.0000 0.0000
vn 0.0000 1.0000 0.0000
vn -1.0000 0.0000 0.0000
vn 1.0000 0.0000 0.0000
usemtl (null)
s off
f 16/1/1 15/2/1 13/3/1 14/4/1
f 16/1/2 14/4/2 23/5/2 24/6/2
f 14/4/2 13/7/2 19/8/2 23/5/2
f 15/2/2 16/9/2 24/10/2 20/11/2
f 13/3/2 15/2/2 20/11/2 19/12/2
f 17/13/3 18/14/3 24/6/3 23/5/3
f 18/14/4 6/15/4 22/16/4 24/6/4
f 6/15/5 18/14/5 32/17/5 30/18/5
f 18/14/1 17/13/1 31/19/1 32/17/1
f 11/20/4 12/21/4 7/22/4 3/23/4
f 4/24/2 3/23/2 7/25/2 8/26/2
f 8/27/5 7/28/5 12/29/5 10/30/5
f 10/31/3 9/32/3 4/24/3 8/33/3
f 9/32/6 11/20/6 3/23/6 4/24/6
f 1/34/6 21/35/6 23/5/6 19/12/6
f 22/16/1 21/35/1 9/32/1 10/30/1
f 21/35/1 1/34/1 11/20/1 9/32/1
f 5/36/1 22/16/1 10/30/1 12/29/1
f 1/34/1 5/36/1 12/29/1 11/20/1
f 22/16/5 5/36/5 20/11/5 24/6/5
f 17/13/6 2/37/6 29/38/6 31/19/6
f 5/36/4 1/34/4 19/12/4 20/11/4
f 6/15/3 2/37/3 21/35/3 22/16/3
f 2/37/4 17/13/4 23/5/4 21/35/4
f 26/39/5 28/40/5 36/41/5 34/42/5
f 2/37/2 6/15/2 30/18/2 29/38/2
f 26/39/4 25/43/4 29/38/4 30/18/4
f 27/44/4 28/40/4 32/17/4 31/19/4
f 25/43/4 27/44/4 31/19/4 29/38/4
f 28/40/4 26/39/4 30/18/4 32/17/4
f 35/45/6 33/46/6 37/47/6 39/48/6
f 28/40/1 27/44/1 35/45/1 36/41/1
f 27/44/6 25/43/6 33/46/6 35/45/6
f 25/43/2 26/39/2 34/42/2 33/46/2
f 37/47/3 38/49/3 40/50/3 39/48/3
f 33/46/2 34/42/2 38/49/2 37/47/2
f 34/42/5 36/41/5 40/50/5 38/49/5
f 36/41/1 35/45/1 39/48/1 40/50/1
