# Blender v2.79 (sub 0) OBJ File: 'Low Poly Island.blend'
# www.blender.org
mtllib Island.mtl
o Island_Cone.001
v 0.110332 0.552053 0.089863
v 4.288437 9.200564 -0.904349
v 3.757024 9.283962 -2.188549
v 0.612955 9.353628 -4.452465
v -4.188178 9.238736 1.075295
v 0.089320 9.597179 4.618250
v 1.446698 9.251205 4.307606
v 0.105527 9.304160 0.193723
v 4.283876 9.202563 1.925150
v 2.026546 9.501972 -0.151085
v 1.127678 9.236712 -0.554456
v 0.992078 9.389778 -1.859259
v 2.674397 9.363276 -3.583844
v -0.877323 9.203867 -4.151312
v -3.183486 9.253704 -3.051016
v -2.141000 9.436472 -1.338961
v -4.219782 9.232539 -0.883857
v -2.812113 9.280052 3.601875
v -1.686369 9.229418 3.999188
v -0.339229 2.648811 1.205418
v 2.291176 2.950649 0.833936
v 2.922484 6.153224 1.269722
v 3.956014 5.780046 -1.584610
v 3.001325 5.770142 -2.910836
v 1.042861 2.825036 -2.371835
v -2.932301 5.760301 -0.149173
v -0.668014 5.929299 3.609072
v -0.949530 9.315580 4.233762
v -1.968492 9.274574 1.760672
v -2.630678 5.758212 1.587755
v -2.519709 9.659631 0.380847
v -0.233977 9.193163 -0.559061
v -1.613402 4.515928 -1.179530
v -0.216446 5.297230 -2.509490
v 0.595666 9.797012 -2.743934
v 1.670142 4.989808 -2.081021
v 2.766609 6.221232 -1.720763
v 1.799149 3.568313 -0.360946
v 4.390672 9.201427 0.940992
v 1.518991 6.214519 2.407277
v 2.715391 9.276340 3.465494
v 0.796678 3.308222 2.186218
v 0.327310 9.363780 4.249649
vn 0.4998 -0.4509 0.7395
vn 0.9007 -0.4232 0.0982
vn 0.7881 -0.0433 -0.6140
vn -0.1420 -0.4038 -0.9037
vn -0.3996 -0.4118 -0.8190
vn -0.8148 -0.4256 -0.3938
vn 0.0248 -0.8373 0.5462
vn -0.0054 -0.1818 0.9833
vn 0.7695 -0.3255 0.5495
vn -0.2765 -0.1965 0.9407
vn -0.8993 -0.3135 0.3049
vn -0.3182 -0.4249 0.8475
vn -0.8341 -0.3056 0.4593
vn -0.4888 -0.4519 0.7462
vn -0.5399 -0.4827 0.6896
vn -0.8916 -0.4228 -0.1620
vn -0.7841 -0.4379 0.4397
vn -0.9386 -0.3446 0.0162
vn -0.7668 -0.3919 -0.5083
vn -0.7744 -0.4718 -0.4215
vn -0.4676 -0.4545 -0.7582
vn -0.4720 -0.4483 -0.7591
vn -0.6878 -0.3846 -0.6157
vn 0.3462 -0.4619 -0.8166
vn 0.1523 -0.3523 -0.9234
vn 0.2309 0.0635 -0.9709
vn -0.4290 -0.2039 -0.8800
vn 0.9527 -0.2887 0.0943
vn 0.9252 -0.2565 0.2797
vn 0.6326 -0.6746 0.3805
vn 0.0508 -0.1668 -0.9847
vn -0.0598 -0.4380 -0.8970
vn 0.7225 -0.5053 -0.4718
vn 0.7452 -0.4855 -0.4571
vn 0.9236 -0.0136 -0.3831
vn 0.6361 -0.2095 0.7426
vn 0.9117 -0.4078 -0.0503
vn 0.9019 -0.4282 0.0575
vn 0.8953 -0.1180 -0.4296
vn 0.7017 -0.4726 -0.5332
vn 0.6256 -0.4205 0.6571
vn 0.5885 -0.4385 0.6792
vn -0.2367 -0.0850 0.9679
vn 0.3694 -0.4292 0.8242
vn 0.9705 -0.2411 -0.0007
vn -0.0816 -0.3271 0.9414
vn 0.8680 -0.2484 0.4300
vn -0.5103 -0.3126 0.8012
vn -0.3840 -0.4965 0.7785
vn -0.1493 0.9456 -0.2892
vn 0.1390 0.9851 0.1011
vn -0.2092 0.9766 -0.0496
vn 0.1178 0.9734 -0.1966
vn 0.1459 0.9664 0.2114
vn -0.2386 0.9689 -0.0650
vn -0.0204 0.9998 -0.0082
vn -0.1274 0.9912 0.0360
vn 0.0396 0.9991 0.0152
vn -0.0133 0.9999 -0.0091
vn -0.1103 0.9450 0.3078
vn -0.2443 0.9697 0.0009
vn 0.0390 0.9296 -0.3664
vn -0.0183 0.9409 0.3382
vn -0.1065 0.9935 -0.0412
vn 0.2162 0.9482 -0.2329
vn 0.0212 0.9998 -0.0008
vn -0.0959 0.9952 0.0201
vn -0.8134 0.5610 -0.1538
vn 0.2046 0.9208 0.3322
vn 0.8365 0.5324 -0.1297
vn 0.0013 0.9999 -0.0141
vn 0.1213 0.9872 0.1032
vn 0.0117 0.9988 0.0477
vn -0.1706 0.9539 -0.2470
vn 0.1349 0.9908 0.0085
vn 0.1296 0.9915 -0.0076
vn -0.0363 0.9406 0.3374
vn 0.0237 0.9997 0.0014
vn 0.0310 0.9994 -0.0163
vn -0.0093 0.9998 0.0159
vn 0.1011 0.9947 -0.0201
vn 0.6612 0.7487 -0.0472
usemtl Ground
s off
f 7//1 40//1 41//1
f 9//2 22//2 39//2
f 3//3 24//3 13//3
f 4//4 34//4 14//4
f 14//5 34//5 15//5
f 15//6 33//6 17//6
f 28//7 43//7 6//7
f 28//8 27//8 43//8
f 27//9 20//9 43//9
f 28//10 19//10 27//10
f 19//11 20//11 27//11
f 18//12 20//12 19//12
f 5//13 30//13 18//13
f 18//14 30//14 20//14
f 30//15 1//15 20//15
f 5//16 1//16 30//16
f 5//17 26//17 1//17
f 17//18 26//18 5//18
f 17//19 33//19 26//19
f 26//20 33//20 1//20
f 15//21 34//21 33//21
f 34//22 1//22 33//22
f 25//23 1//23 34//23
f 13//24 34//24 4//24
f 13//25 36//25 34//25
f 36//26 25//26 34//26
f 13//27 24//27 36//27
f 36//28 1//28 25//28
f 3//29 37//29 24//29
f 37//30 36//30 24//30
f 3//31 23//31 37//31
f 23//32 38//32 37//32
f 37//33 38//33 36//33
f 38//34 1//34 36//34
f 2//35 23//35 3//35
f 2//36 38//36 23//36
f 39//37 38//37 2//37
f 39//38 22//38 38//38
f 22//39 21//39 38//39
f 21//40 1//40 38//40
f 9//41 41//41 22//41
f 41//42 1//42 22//42
f 22//43 1//43 21//43
f 40//44 1//44 41//44
f 40//45 42//45 1//45
f 43//46 42//46 7//46
f 7//47 42//47 40//47
f 43//48 20//48 42//48
f 20//49 1//49 42//49
usemtl Material.001
f 8//50 10//50 11//50
f 8//51 11//51 12//51
f 8//52 12//52 32//52
f 8//53 32//53 31//53
f 8//54 31//54 29//54
f 8//55 28//55 6//55
f 8//56 29//56 28//56
f 28//57 29//57 19//57
f 29//58 18//58 19//58
f 29//59 5//59 18//59
f 29//60 31//60 5//60
f 31//61 17//61 5//61
f 31//62 32//62 17//62
f 32//63 16//63 17//63
f 16//64 15//64 17//64
f 16//65 32//65 15//65
f 32//66 14//66 15//66
f 32//67 4//67 14//67
f 32//68 35//68 4//68
f 32//69 12//69 35//69
f 35//70 12//70 4//70
f 12//71 13//71 4//71
f 12//72 11//72 13//72
f 11//73 3//73 13//73
f 11//74 10//74 3//74
f 10//75 2//75 3//75
f 10//76 39//76 2//76
f 10//77 8//77 39//77
f 8//78 9//78 39//78
f 8//79 41//79 9//79
f 8//80 7//80 41//80
f 8//81 43//81 7//81
f 8//82 6//82 43//82
