# Blender v2.81 (sub 16) OBJ File: ''
# www.blender.org
mtllib Log.mtl
o Cylinder.001
v 9.776145 0.035877 -0.329184
v 9.351651 0.034319 -0.755732
v 9.776379 -0.028491 -0.322849
v 9.352193 -0.113212 -0.741211
v 9.776606 -0.090374 -0.304089
v 9.352714 -0.255074 -0.698206
v 9.776819 -0.147384 -0.273636
v 9.353193 -0.385814 -0.628369
v 9.777002 -0.197332 -0.232672
v 9.353614 -0.500409 -0.534384
v 9.777138 -0.238303 -0.182780
v 9.353959 -0.594454 -0.419862
v 9.777281 -0.268735 -0.125882
v 9.354215 -0.664336 -0.289206
v 9.777327 -0.287468 -0.064168
v 9.354373 -0.707370 -0.147436
v 9.777352 -0.293792 -0.000000
v 9.354426 -0.721900 -0.000000
v 9.777328 -0.287468 0.064168
v 9.354373 -0.707370 0.147436
v 9.777281 -0.268735 0.125882
v 9.354215 -0.664336 0.289206
v 9.777138 -0.238303 0.182779
v 9.353959 -0.594454 0.419862
v 9.777002 -0.197332 0.232672
v 9.353614 -0.500409 0.534384
v 9.776819 -0.147384 0.273636
v 9.353193 -0.385814 0.628369
v 9.776606 -0.090374 0.304089
v 9.352714 -0.255074 0.698206
v 9.776379 -0.028491 0.322849
v 9.352193 -0.113212 0.741211
v 9.776145 0.035877 0.329184
v 9.351651 0.034319 0.755732
v 9.775911 0.100245 0.322849
v 9.351110 0.181850 0.741211
v 9.775684 0.162127 0.304090
v 9.350589 0.323712 0.698206
v 9.775471 0.219137 0.273636
v 9.350109 0.454452 0.628368
v 9.775288 0.269086 0.232670
v 9.349689 0.569047 0.534383
v 9.775167 0.310058 0.182779
v 9.349343 0.663092 0.419862
v 9.774981 0.340488 0.125884
v 9.349089 0.732974 0.289206
v 9.774977 0.359221 0.064168
v 9.348929 0.776007 0.147435
v 9.774938 0.365546 -0.000001
v 9.348876 0.790538 -0.000001
v 9.774977 0.359222 -0.064169
v 9.348929 0.776007 -0.147437
v 9.774982 0.340489 -0.125883
v 9.349089 0.732974 -0.289207
v 9.775167 0.310057 -0.182779
v 9.349343 0.663091 -0.419863
v 9.775288 0.269085 -0.232671
v 9.349689 0.569046 -0.534384
v 9.775471 0.219138 -0.273636
v 9.350109 0.454451 -0.628369
v 9.775684 0.162126 -0.304089
v 9.350589 0.323710 -0.698206
v 9.351110 0.181849 -0.741211
v 9.775911 0.100244 -0.322849
v -9.776145 -0.035877 -0.374665
v -9.396914 -0.034485 -0.755732
v -9.396372 -0.182016 -0.741211
v -9.775879 -0.109112 -0.367457
v -9.395851 -0.323877 -0.698206
v -9.775620 -0.179522 -0.346112
v -9.395371 -0.454618 -0.628369
v -9.775378 -0.244395 -0.311460
v -9.394951 -0.569212 -0.534384
v -9.775170 -0.301235 -0.264842
v -9.394606 -0.663258 -0.419862
v -9.775025 -0.347866 -0.208058
v -9.394351 -0.733140 -0.289206
v -9.774833 -0.382504 -0.143297
v -9.394192 -0.776173 -0.147436
v -9.774812 -0.403828 -0.073047
v -9.394138 -0.790704 -0.000000
v -9.774770 -0.411027 -0.000000
v -9.394192 -0.776173 0.147436
v -9.774811 -0.403828 0.073047
v -9.394351 -0.733140 0.289206
v -9.774833 -0.382504 0.143297
v -9.394606 -0.663258 0.419862
v -9.775024 -0.347867 0.208058
v -9.394951 -0.569212 0.534384
v -9.775169 -0.301235 0.264842
v -9.395371 -0.454618 0.628369
v -9.775378 -0.244395 0.311460
v -9.395851 -0.323877 0.698206
v -9.775620 -0.179522 0.346112
v -9.396372 -0.182016 0.741211
v -9.775878 -0.109112 0.367457
v -9.396914 -0.034485 0.755732
v -9.776145 -0.035877 0.374665
v -9.397455 0.113047 0.741211
v -9.776411 0.037359 0.367457
v -9.397976 0.254908 0.698206
v -9.776670 0.107768 0.346113
v -9.398456 0.385648 0.628368
v -9.776912 0.172640 0.311460
v -9.398876 0.500243 0.534383
v -9.777120 0.229483 0.264840
v -9.399221 0.594289 0.419862
v -9.777278 0.276114 0.208057
v -9.399477 0.664171 0.289206
v -9.777433 0.310751 0.143298
v -9.399635 0.707204 0.147435
v -9.777492 0.332074 0.073047
v -9.399689 0.721734 -0.000001
v -9.777520 0.339273 0.000000
v -9.399635 0.707203 -0.147437
v -9.777491 0.332074 -0.073048
v -9.399477 0.664170 -0.289207
v -9.777432 0.310750 -0.143298
v -9.399221 0.594288 -0.419863
v -9.777278 0.276113 -0.208058
v -9.398876 0.500242 -0.534384
v -9.777121 0.229482 -0.264841
v -9.398456 0.385647 -0.628369
v -9.776912 0.172640 -0.311460
v -9.397976 0.254907 -0.698206
v -9.776670 0.107768 -0.346112
v -9.397455 0.113045 -0.741211
v -9.776412 0.037358 -0.367457
vt 0.270428 0.352528
vt 0.250000 0.354540
vt 0.229572 0.352528
vt 0.209933 0.346571
vt 0.191839 0.336899
vt 0.175987 0.323890
vt 0.162984 0.308046
vt 0.153326 0.289977
vt 0.147380 0.270378
vt 0.145374 0.250000
vt 0.147381 0.229622
vt 0.153326 0.210023
vt 0.162984 0.191954
vt 0.175987 0.176110
vt 0.191839 0.163101
vt 0.209932 0.153429
vt 0.229572 0.147472
vt 0.250000 0.145460
vt 0.270428 0.147472
vt 0.290068 0.153429
vt 0.308161 0.163100
vt 0.324013 0.176110
vt 0.337016 0.191954
vt 0.346674 0.210023
vt 0.352619 0.229622
vt 0.354627 0.250000
vt 0.352620 0.270378
vt 0.346674 0.289976
vt 0.337016 0.308046
vt 0.324013 0.323890
vt 0.308161 0.336900
vt 0.290068 0.346571
vt 0.906250 0.509698
vt 0.906250 0.989145
vt 0.875000 0.989145
vt 0.875000 0.509698
vt 0.843750 0.989145
vt 0.843750 0.509698
vt 0.843750 0.509698
vt 0.812500 0.989145
vt 0.812500 0.509698
vt 0.781250 0.989145
vt 0.781250 0.509698
vt 0.750000 0.989145
vt 0.750000 0.509698
vt 0.718750 0.989145
vt 0.718750 0.509698
vt 0.687500 0.989145
vt 0.687500 0.509698
vt 0.656250 0.989145
vt 0.656250 0.509698
vt 0.625000 0.989145
vt 0.625000 0.509698
vt 0.593750 0.989145
vt 0.593750 0.509698
vt 0.562500 0.989145
vt 0.562500 0.509698
vt 0.531250 0.989145
vt 0.531250 0.509698
vt 0.500000 0.989145
vt 0.500000 0.509698
vt 0.468750 0.989145
vt 0.468750 0.509698
vt 0.437500 0.989145
vt 0.437500 0.509698
vt 0.406250 0.989145
vt 0.406250 0.509698
vt 0.375000 0.989145
vt 0.375000 0.509698
vt 0.343750 0.989145
vt 0.343750 0.509698
vt 0.312500 0.989145
vt 0.312500 0.509698
vt 0.281250 0.989145
vt 0.281250 0.509698
vt 0.250000 0.989145
vt 0.250000 0.509698
vt 0.218750 0.989145
vt 0.218750 0.509698
vt 0.218750 0.509698
vt 0.187500 0.989145
vt 0.187500 0.509698
vt 0.156250 0.989145
vt 0.156250 0.509698
vt 0.125000 0.989145
vt 0.125000 0.509698
vt 0.093750 0.989145
vt 0.093750 0.509698
vt 0.062500 0.989145
vt 0.062500 0.509698
vt 0.031250 0.989145
vt 0.031250 0.509698
vt 0.937500 0.509698
vt 0.937500 0.989145
vt 0.968750 0.509698
vt 0.968750 0.989145
vt 0.000000 0.989145
vt 0.000000 0.509698
vt 0.296822 0.485388
vt 0.250000 0.490000
vt 0.341844 0.471731
vt 0.383337 0.449553
vt 0.419706 0.419706
vt 0.449553 0.383337
vt 0.471731 0.341844
vt 0.485388 0.296822
vt 0.490000 0.250000
vt 0.485388 0.203178
vt 0.471731 0.158156
vt 0.449553 0.116663
vt 0.419706 0.080294
vt 0.383337 0.050447
vt 0.341844 0.028269
vt 0.296822 0.014612
vt 0.250000 0.010000
vt 0.203178 0.014612
vt 0.158156 0.028269
vt 0.116663 0.050447
vt 0.080294 0.080294
vt 0.050447 0.116663
vt 0.028269 0.158156
vt 0.014611 0.203179
vt 0.010000 0.250000
vt 0.014612 0.296822
vt 0.028269 0.341844
vt 0.050447 0.383337
vt 0.080295 0.419706
vt 0.116663 0.449553
vt 0.158156 0.471731
vt 0.022442 1.000000
vt 0.008808 1.000000
vt 0.203179 0.485389
vt 1.000000 0.509698
vt 1.000000 0.989145
vt 0.976619 0.500000
vt 0.992132 0.500000
vt 0.945370 0.500000
vt 0.960881 0.500000
vt 0.914123 0.500000
vt 0.929629 0.500000
vt 0.882876 0.500000
vt 0.898376 0.500000
vt 0.851629 0.500000
vt 0.867123 0.500000
vt 0.820381 0.500000
vt 0.835870 0.500000
vt 0.789133 0.500000
vt 0.804618 0.500000
vt 0.757884 0.500000
vt 0.773367 0.500000
vt 0.726633 0.500000
vt 0.742116 0.500000
vt 0.695382 0.500000
vt 0.710867 0.500000
vt 0.664129 0.500000
vt 0.679619 0.500000
vt 0.632877 0.500000
vt 0.648372 0.500000
vt 0.601624 0.500000
vt 0.617124 0.500000
vt 0.570371 0.500000
vt 0.585877 0.500000
vt 0.539119 0.500000
vt 0.554630 0.500000
vt 0.507868 0.500000
vt 0.523381 0.500000
vt 0.476619 0.500000
vt 0.492132 0.500000
vt 0.445371 0.500000
vt 0.460881 0.500000
vt 0.414122 0.500000
vt 0.429629 0.500000
vt 0.382876 0.500000
vt 0.398377 0.500000
vt 0.351629 0.500000
vt 0.367123 0.500000
vt 0.320381 0.500000
vt 0.335870 0.500000
vt 0.289133 0.500000
vt 0.304618 0.500000
vt 0.257884 0.500000
vt 0.273367 0.500000
vt 0.226633 0.500000
vt 0.242116 0.500000
vt 0.195382 0.500000
vt 0.210867 0.500000
vt 0.164130 0.500000
vt 0.179619 0.500000
vt 0.132877 0.500000
vt 0.148371 0.500000
vt 0.101624 0.500000
vt 0.117124 0.500000
vt 0.070371 0.500000
vt 0.085877 0.500000
vt 0.039119 0.500000
vt 0.054629 0.500000
vt 0.750000 0.368984
vt 0.726758 0.366694
vt 0.703179 0.485389
vt 0.750000 0.490000
vt 0.773243 0.366694
vt 0.795589 0.359916
vt 0.816177 0.348911
vt 0.834216 0.334107
vt 0.849016 0.316074
vt 0.860008 0.295508
vt 0.866776 0.273198
vt 0.869061 0.250000
vt 0.866776 0.226802
vt 0.860008 0.204492
vt 0.849016 0.183926
vt 0.834216 0.165893
vt 0.816177 0.151089
vt 0.795589 0.140084
vt 0.773243 0.133306
vt 0.750000 0.131016
vt 0.726757 0.133306
vt 0.704412 0.140084
vt 0.683823 0.151089
vt 0.665783 0.165894
vt 0.650984 0.183927
vt 0.639992 0.204493
vt 0.633224 0.226802
vt 0.630939 0.250000
vt 0.633224 0.273198
vt 0.639992 0.295508
vt 0.650984 0.316074
vt 0.665783 0.334106
vt 0.683824 0.348911
vt 0.704412 0.359916
vn 1.0000 0.0037 0.0000
vn 0.0023 -0.6341 -0.7732
vn 0.0028 -0.7728 -0.6346
vn 0.0032 -0.8818 -0.4716
vn 0.0035 -0.9569 -0.2905
vn 0.0037 -0.9952 -0.0981
vn 0.0037 -0.9952 0.0981
vn 0.0035 -0.9569 0.2905
vn 0.0032 -0.8818 0.4716
vn 0.0028 -0.7728 0.6346
vn 0.0023 -0.6341 0.7732
vn 0.0017 -0.4712 0.8820
vn 0.0011 -0.2901 0.9570
vn 0.0004 -0.0980 0.9952
vn -0.0004 0.0980 0.9952
vn -0.0011 0.2901 0.9570
vn -0.0017 0.4712 0.8820
vn -0.0023 0.6341 0.7732
vn -0.0028 0.7728 0.6346
vn -0.0032 0.8818 0.4716
vn -0.0035 0.9569 0.2905
vn -0.0037 0.9952 0.0981
vn -0.0037 0.9952 -0.0981
vn -0.0035 0.9569 -0.2905
vn -0.0032 0.8818 -0.4716
vn -0.0028 0.7728 -0.6346
vn -0.0023 0.6341 -0.7732
vn -0.0017 0.4712 -0.8820
vn -0.0011 0.2901 -0.9570
vn 0.0017 -0.4712 -0.8820
vn 0.0011 -0.2901 -0.9570
vn -0.0004 0.0980 -0.9952
vn 0.7088 0.0026 -0.7054
vn 0.7093 -0.1349 -0.6919
vn 0.7098 -0.2672 -0.6518
vn 0.7102 -0.3891 -0.5866
vn 0.7106 -0.4960 -0.4989
vn 0.7110 -0.5838 -0.3921
vn 0.7112 -0.6490 -0.2701
vn 0.7113 -0.6892 -0.1377
vn 0.7114 -0.7028 -0.0000
vn 0.7113 -0.6892 0.1377
vn 0.7112 -0.6490 0.2701
vn 0.7110 -0.5838 0.3921
vn 0.7106 -0.4960 0.4989
vn 0.7102 -0.3891 0.5866
vn 0.7098 -0.2672 0.6518
vn 0.7093 -0.1349 0.6919
vn 0.7088 0.0026 0.7054
vn 0.7083 0.1401 0.6919
vn 0.7078 0.2724 0.6518
vn 0.7074 0.3943 0.5866
vn 0.7070 0.5012 0.4990
vn 0.7067 0.5890 0.3920
vn 0.7064 0.6542 0.2701
vn 0.7063 0.6944 0.1378
vn 0.7062 0.7080 -0.0000
vn 0.7063 0.6944 -0.1378
vn 0.7064 0.6542 -0.2701
vn 0.7067 0.5890 -0.3920
vn 0.7070 0.5012 -0.4990
vn 0.7074 0.3943 -0.5866
vn 0.7078 0.2724 -0.6518
vn 0.7083 0.1401 -0.6919
vn 0.0004 -0.0980 -0.9952
vn -0.7088 -0.0026 -0.7054
vn -0.7083 -0.1401 -0.6919
vn -0.7078 -0.2724 -0.6518
vn -0.7074 -0.3943 -0.5866
vn -0.7070 -0.5012 -0.4990
vn -0.7067 -0.5890 -0.3920
vn -0.7064 -0.6542 -0.2701
vn -0.7063 -0.6944 -0.1378
vn -0.7062 -0.7080 0.0000
vn -0.7063 -0.6944 0.1378
vn -0.7064 -0.6542 0.2701
vn -0.7067 -0.5890 0.3920
vn -0.7070 -0.5012 0.4990
vn -0.7074 -0.3943 0.5866
vn -0.7078 -0.2724 0.6518
vn -0.7083 -0.1401 0.6919
vn -0.7088 -0.0026 0.7054
vn -0.7093 0.1349 0.6919
vn -0.7098 0.2672 0.6518
vn -0.7102 0.3891 0.5866
vn -0.7106 0.4960 0.4989
vn -0.7110 0.5838 0.3921
vn -0.7112 0.6490 0.2701
vn -0.7113 0.6892 0.1377
vn -0.7114 0.7028 -0.0000
vn -0.7113 0.6892 -0.1377
vn -0.7112 0.6490 -0.2701
vn -0.7110 0.5838 -0.3921
vn -0.7106 0.4960 -0.4989
vn -0.7102 0.3891 -0.5866
vn -0.7098 0.2672 -0.6518
vn -0.7093 0.1349 -0.6919
vn -1.0000 -0.0037 0.0000
usemtl Material.002
s 1
f 3/1/1 1/2/1 64/3/1 61/4/1 59/5/1 57/6/1 55/7/1 53/8/1 51/9/1 49/10/1 47/11/1 45/12/1 43/13/1 41/14/1 39/15/1 37/16/1 35/17/1 33/18/1 31/19/1 29/20/1 27/21/1 25/22/1 23/23/1 21/24/1 19/25/1 17/26/1 15/27/1 13/28/1 11/29/1 9/30/1 7/31/1 5/32/1
f 71/33/2 8/34/2 10/35/2 73/36/2
f 73/36/3 10/35/3 12/37/3 75/38/3
f 75/39/4 12/37/4 14/40/4 77/41/4
f 77/41/5 14/40/5 16/42/5 79/43/5
f 79/43/6 16/42/6 18/44/6 81/45/6
f 81/45/7 18/44/7 20/46/7 83/47/7
f 83/47/8 20/46/8 22/48/8 85/49/8
f 85/49/9 22/48/9 24/50/9 87/51/9
f 87/51/10 24/50/10 26/52/10 89/53/10
f 89/53/11 26/52/11 28/54/11 91/55/11
f 91/55/12 28/54/12 30/56/12 93/57/12
f 93/57/13 30/56/13 32/58/13 95/59/13
f 95/59/14 32/58/14 34/60/14 97/61/14
f 97/61/15 34/60/15 36/62/15 99/63/15
f 99/63/16 36/62/16 38/64/16 101/65/16
f 101/65/17 38/64/17 40/66/17 103/67/17
f 103/67/18 40/66/18 42/68/18 105/69/18
f 105/69/19 42/68/19 44/70/19 107/71/19
f 107/71/20 44/70/20 46/72/20 109/73/20
f 109/73/21 46/72/21 48/74/21 111/75/21
f 111/75/22 48/74/22 50/76/22 113/77/22
f 113/77/23 50/76/23 52/78/23 115/79/23
f 115/80/24 52/78/24 54/81/24 117/82/24
f 117/82/25 54/81/25 56/83/25 119/84/25
f 119/84/26 56/83/26 58/85/26 121/86/26
f 121/86/27 58/85/27 60/87/27 123/88/27
f 123/88/28 60/87/28 62/89/28 125/90/28
f 125/90/29 62/89/29 63/91/29 127/92/29
f 69/93/30 6/94/30 8/34/30 71/33/30
f 67/95/31 4/96/31 6/94/31 69/93/31
f 127/92/32 63/91/32 2/97/32 66/98/32
f 1/2/33 3/1/34 4/99/34 2/100/33
f 3/1/34 5/32/35 6/101/35 4/99/34
f 5/32/35 7/31/36 8/102/36 6/101/35
f 7/31/36 9/30/37 10/103/37 8/102/36
f 9/30/37 11/29/38 12/104/38 10/103/37
f 11/29/38 13/28/39 14/105/39 12/104/38
f 13/28/39 15/27/40 16/106/40 14/105/39
f 15/27/40 17/26/41 18/107/41 16/106/40
f 17/26/41 19/25/42 20/108/42 18/107/41
f 19/25/42 21/24/43 22/109/43 20/108/42
f 21/24/43 23/23/44 24/110/44 22/109/43
f 23/23/44 25/22/45 26/111/45 24/110/44
f 25/22/45 27/21/46 28/112/46 26/111/45
f 27/21/46 29/20/47 30/113/47 28/112/46
f 29/20/47 31/19/48 32/114/48 30/113/47
f 31/19/48 33/18/49 34/115/49 32/114/48
f 33/18/49 35/17/50 36/116/50 34/115/49
f 35/17/50 37/16/51 38/117/51 36/116/50
f 37/16/51 39/15/52 40/118/52 38/117/51
f 39/15/52 41/14/53 42/119/53 40/118/52
f 41/14/53 43/13/54 44/120/54 42/119/53
f 43/13/54 45/12/55 46/121/55 44/120/54
f 45/12/55 47/11/56 48/122/56 46/121/55
f 47/11/56 49/10/57 50/123/57 48/122/56
f 49/10/57 51/9/58 52/124/58 50/123/57
f 51/9/58 53/8/59 54/125/59 52/124/58
f 53/8/59 55/7/60 56/126/60 54/125/59
f 55/7/60 57/6/61 58/127/61 56/126/60
f 57/6/61 59/5/62 60/128/62 58/127/61
f 59/5/62 61/4/63 62/129/63 60/128/62
f 2/97/33 63/91/64 64/130/64 1/131/33
f 61/4/63 64/3/64 63/132/64 62/129/63
f 66/133/65 2/134/65 4/96/65 67/95/65
f 66/133/66 67/95/67 68/135/67 65/136/66
f 67/95/67 69/93/68 70/137/68 68/138/67
f 69/93/68 71/33/69 72/139/69 70/140/68
f 71/33/69 73/36/70 74/141/70 72/142/69
f 73/36/70 75/38/71 76/143/71 74/144/70
f 75/39/71 77/41/72 78/145/72 76/146/71
f 77/41/72 79/43/73 80/147/73 78/148/72
f 79/43/73 81/45/74 82/149/74 80/150/73
f 81/45/74 83/47/75 84/151/75 82/152/74
f 83/47/75 85/49/76 86/153/76 84/154/75
f 85/49/76 87/51/77 88/155/77 86/156/76
f 87/51/77 89/53/78 90/157/78 88/158/77
f 89/53/78 91/55/79 92/159/79 90/160/78
f 91/55/79 93/57/80 94/161/80 92/162/79
f 93/57/80 95/59/81 96/163/81 94/164/80
f 95/59/81 97/61/82 98/165/82 96/166/81
f 97/61/82 99/63/83 100/167/83 98/168/82
f 99/63/83 101/65/84 102/169/84 100/170/83
f 101/65/84 103/67/85 104/171/85 102/172/84
f 103/67/85 105/69/86 106/173/86 104/174/85
f 105/69/86 107/71/87 108/175/87 106/176/86
f 107/71/87 109/73/88 110/177/88 108/178/87
f 109/73/88 111/75/89 112/179/89 110/180/88
f 111/75/89 113/77/90 114/181/90 112/182/89
f 113/77/90 115/79/91 116/183/91 114/184/90
f 115/80/91 117/82/92 118/185/92 116/186/91
f 117/82/92 119/84/93 120/187/93 118/188/92
f 119/84/93 121/86/94 122/189/94 120/190/93
f 121/86/94 123/88/95 124/191/95 122/192/94
f 123/88/95 125/90/96 126/193/96 124/194/95
f 125/90/96 127/92/97 128/195/97 126/196/96
f 65/197/66 128/198/97 127/199/97 66/200/66
f 65/197/98 68/201/98 70/202/98 72/203/98 74/204/98 76/205/98 78/206/98 80/207/98 82/208/98 84/209/98 86/210/98 88/211/98 90/212/98 92/213/98 94/214/98 96/215/98 98/216/98 100/217/98 102/218/98 104/219/98 106/220/98 108/221/98 110/222/98 112/223/98 114/224/98 116/225/98 118/226/98 120/227/98 122/228/98 124/229/98 126/230/98 128/198/98
