# Blender v2.81 (sub 16) OBJ File: ''
# www.blender.org
mtllib Platform6.mtl
o Cylinder
v 0.847356 -1.031372 -20.292002
v 0.671506 1.004964 -18.795071
v 4.298393 1.104453 -18.139507
v 4.764268 -0.923928 -19.584019
v 7.727720 1.200607 -16.786970
v 8.467823 -0.820085 -18.123323
v 10.827700 1.289730 -14.789425
v 11.815693 -0.723835 -15.966047
v 13.479199 1.368397 -12.223643
v 14.679223 -0.638877 -13.195091
v 15.580328 1.433586 -9.188225
v 16.948368 -0.568475 -9.916945
v 17.050335 1.482791 -5.799822
v 18.535923 -0.515335 -6.257585
v 17.832733 1.514122 -2.188645
v 19.380886 -0.481499 -2.357639
v 17.897455 1.526373 1.506529
v 19.450783 -0.468268 1.633020
v 17.242010 1.519075 5.143697
v 18.742924 -0.476150 5.561035
v 15.891588 1.492509 8.583083
v 17.284515 -0.504840 9.275455
v 13.898086 1.447693 11.692517
v 15.131604 -0.553240 12.633535
v 11.338111 1.386352 14.352503
v 12.366921 -0.619485 15.506227
v 8.310044 1.310842 16.460821
v 9.096713 -0.701034 17.783136
v 4.930250 1.224066 17.936445
v 5.446652 -0.794749 19.376759
v 1.328613 1.129358 18.722668
v 1.557010 -0.897031 20.225853
v -2.356457 1.030357 18.789278
v -2.422740 -1.003949 20.297791
v -5.983346 0.930867 18.133717
v -6.339653 -1.111393 19.589806
v -9.412674 0.834714 16.781174
v -10.043208 -1.215236 18.129108
v -12.512653 0.745590 14.783629
v -13.391079 -1.311486 15.971829
v -15.164154 0.666923 12.217846
v -16.254608 -1.396444 13.200871
v -17.265280 0.601734 9.182425
v -18.523752 -1.466846 9.922722
v -18.735289 0.552529 5.794018
v -20.111307 -1.519985 6.263359
v -19.517679 0.521198 2.182837
v -20.956266 -1.553822 2.363410
v -19.582396 0.508947 -1.512338
v -21.026159 -1.567053 -1.627252
v -18.926947 0.516246 -5.149508
v -20.318296 -1.559171 -5.555269
v -17.576521 0.542812 -8.588895
v -18.859882 -1.530480 -9.269688
v -15.583017 0.587628 -11.698327
v -16.706964 -1.482081 -12.627768
v -13.023038 0.648969 -14.358310
v -13.942278 -1.415835 -15.500456
v -9.994968 0.724479 -16.466621
v -10.672066 -1.334286 -17.777361
v -6.615173 0.811255 -17.942242
v -7.022005 -1.240571 -19.370977
v -3.013534 0.905964 -18.728460
v -3.132360 -1.138289 -20.220066
v -0.740933 -24.347931 -0.593076
v -0.625938 -24.344776 -0.572289
v -0.517206 -24.341726 -0.529405
v -0.418917 -24.338900 -0.466071
v -0.334848 -24.336407 -0.384719
v -0.268228 -24.334339 -0.288476
v -0.221619 -24.332779 -0.181043
v -0.196813 -24.331787 -0.066546
v -0.194761 -24.331398 0.050615
v -0.215543 -24.331629 0.165936
v -0.258359 -24.332472 0.274987
v -0.321565 -24.333891 0.373575
v -0.402734 -24.335836 0.457914
v -0.498742 -24.338230 0.524761
v -0.605904 -24.340982 0.571548
v -0.720098 -24.343987 0.596475
v -0.836939 -24.347124 0.598589
v -0.951934 -24.350279 0.577802
v -1.060666 -24.353329 0.534918
v -1.158955 -24.356153 0.471584
v -1.243024 -24.358646 0.390232
v -1.309643 -24.360714 0.293990
v -1.356253 -24.362274 0.186556
v -1.381059 -24.363268 0.072058
v -1.383111 -24.363657 -0.045102
v -1.362329 -24.363426 -0.160424
v -1.319511 -24.362581 -0.269474
v -1.256305 -24.361162 -0.368063
v -1.175137 -24.359217 -0.452402
v -1.079129 -24.356823 -0.519248
v -0.971967 -24.354073 -0.566034
v -0.857772 -24.351068 -0.590962
vt 1.000000 0.500000
vt 1.000000 1.000000
vt 0.968750 1.000000
vt 0.968750 0.500000
vt 0.937500 1.000000
vt 0.937500 0.500000
vt 0.906250 1.000000
vt 0.906250 0.500000
vt 0.875000 1.000000
vt 0.875000 0.500000
vt 0.843750 1.000000
vt 0.843750 0.500000
vt 0.812500 1.000000
vt 0.812500 0.500000
vt 0.781250 1.000000
vt 0.781250 0.500000
vt 0.750000 1.000000
vt 0.750000 0.500000
vt 0.718750 1.000000
vt 0.718750 0.500000
vt 0.687500 1.000000
vt 0.687500 0.500000
vt 0.656250 1.000000
vt 0.656250 0.500000
vt 0.625000 1.000000
vt 0.625000 0.500000
vt 0.593750 1.000000
vt 0.593750 0.500000
vt 0.562500 1.000000
vt 0.562500 0.500000
vt 0.531250 1.000000
vt 0.531250 0.500000
vt 0.500000 1.000000
vt 0.500000 0.500000
vt 0.468750 1.000000
vt 0.468750 0.500000
vt 0.437500 1.000000
vt 0.437500 0.500000
vt 0.406250 1.000000
vt 0.406250 0.500000
vt 0.375000 1.000000
vt 0.375000 0.500000
vt 0.343750 1.000000
vt 0.343750 0.500000
vt 0.312500 1.000000
vt 0.312500 0.500000
vt 0.281250 1.000000
vt 0.281250 0.500000
vt 0.250000 1.000000
vt 0.250000 0.500000
vt 0.218750 1.000000
vt 0.218750 0.500000
vt 0.187500 1.000000
vt 0.187500 0.500000
vt 0.156250 1.000000
vt 0.156250 0.500000
vt 0.125000 1.000000
vt 0.125000 0.500000
vt 0.093750 1.000000
vt 0.093750 0.500000
vt 0.062500 1.000000
vt 0.062500 0.500000
vt 0.296822 0.485388
vt 0.250000 0.490000
vt 0.203179 0.485389
vt 0.158156 0.471731
vt 0.116663 0.449553
vt 0.080295 0.419706
vt 0.050447 0.383337
vt 0.028269 0.341844
vt 0.014612 0.296822
vt 0.010000 0.250000
vt 0.014611 0.203179
vt 0.028269 0.158156
vt 0.050447 0.116663
vt 0.080294 0.080294
vt 0.116663 0.050447
vt 0.158156 0.028269
vt 0.203178 0.014612
vt 0.250000 0.010000
vt 0.296822 0.014612
vt 0.341844 0.028269
vt 0.383337 0.050447
vt 0.419706 0.080294
vt 0.449553 0.116663
vt 0.471731 0.158156
vt 0.485388 0.203178
vt 0.490000 0.250000
vt 0.485388 0.296822
vt 0.471731 0.341844
vt 0.449553 0.383337
vt 0.419706 0.419706
vt 0.383337 0.449553
vt 0.341844 0.471731
vt 0.031250 1.000000
vt 0.031250 0.500000
vt 0.000000 1.000000
vt 0.000000 0.500000
vt 0.343750 0.500000
vt 0.375000 0.500000
vt 0.750000 0.490000
vt 0.796822 0.485388
vt 0.841844 0.471731
vt 0.883337 0.449553
vt 0.919706 0.419706
vt 0.949553 0.383337
vt 0.971731 0.341844
vt 0.985388 0.296822
vt 0.990000 0.250000
vt 0.985388 0.203178
vt 0.971731 0.158156
vt 0.949553 0.116663
vt 0.919706 0.080294
vt 0.883337 0.050447
vt 0.841844 0.028269
vt 0.796822 0.014612
vt 0.750000 0.010000
vt 0.703178 0.014612
vt 0.658156 0.028269
vt 0.616663 0.050447
vt 0.580294 0.080294
vt 0.550447 0.116663
vt 0.528269 0.158156
vt 0.514611 0.203179
vt 0.510000 0.250000
vt 0.514612 0.296822
vt 0.528269 0.341844
vt 0.550447 0.383337
vt 0.580295 0.419706
vt 0.616663 0.449553
vt 0.658156 0.471731
vt 0.703179 0.485389
vt 0.062500 0.500000
vt 0.093750 0.500000
vt 0.750000 0.500000
vt 0.781250 0.500000
vt 0.468750 0.500000
vt 0.500000 0.500000
vt 0.187500 0.500000
vt 0.218750 0.500000
vt 0.875000 0.500000
vt 0.906250 0.500000
vt 0.593750 0.500000
vt 0.625000 0.500000
vt 0.312500 0.500000
vt 0.718750 0.500000
vt 0.437500 0.500000
vt 0.156250 0.500000
vt 0.031250 0.500000
vt 0.843750 0.500000
vt 0.562500 0.500000
vt 0.281250 0.500000
vt 0.968750 0.500000
vt 1.000000 0.500000
vt 0.000000 0.500000
vt 0.687500 0.500000
vt 0.406250 0.500000
vt 0.125000 0.500000
vt 0.812500 0.500000
vt 0.531250 0.500000
vt 0.250000 0.500000
vt 0.937500 0.500000
vt 0.656250 0.500000
vn 0.1272 0.5946 -0.7939
vn 0.2793 0.5987 -0.7507
vn 0.4200 0.6026 -0.6786
vn 0.5438 0.6060 -0.5805
vn 0.6460 0.6090 -0.4603
vn 0.7228 0.6112 -0.3224
vn 0.7712 0.6128 -0.1724
vn 0.7894 0.6137 -0.0159
vn 0.7767 0.6138 0.1412
vn 0.7337 0.6132 0.2928
vn 0.6619 0.6118 0.4332
vn 0.5641 0.6096 0.5569
vn 0.4439 0.6069 0.6593
vn 0.3060 0.6036 0.7363
vn 0.1556 0.5998 0.7849
vn -0.0015 0.5957 0.8032
vn -0.1591 0.5914 0.7905
vn -0.3112 0.5871 0.7473
vn -0.4519 0.5830 0.6752
vn -0.5757 0.5792 0.5772
vn -0.6779 0.5759 0.4569
vn -0.7547 0.5733 0.3191
vn -0.8030 0.5714 0.1690
vn -0.8212 0.5704 0.0125
vn -0.8086 0.5703 -0.1446
vn -0.7656 0.5711 -0.2962
vn -0.6938 0.5728 -0.4365
vn -0.5960 0.5752 -0.5603
vn -0.4758 0.5784 -0.6627
vn -0.3379 0.5820 -0.7397
vn -0.0269 0.9996 -0.0028
vn -0.1875 0.5861 -0.7883
vn -0.0304 0.5903 -0.8066
vn -0.5695 -0.6518 0.5009
vn -0.6569 -0.6527 0.3775
vn -0.6575 -0.6527 0.3764
vn -0.5705 -0.6518 0.4997
vn 0.0269 -0.9996 0.0028
vn -0.3572 -0.6510 -0.6698
vn -0.2181 -0.6496 -0.7283
vn -0.2199 -0.6496 -0.7277
vn -0.3587 -0.6510 -0.6690
vn 0.7661 -0.6370 -0.0849
vn 0.7685 -0.6368 0.0624
vn 0.7685 -0.6368 0.0623
vn 0.7661 -0.6370 -0.0852
vn -0.0429 -0.6460 0.7621
vn -0.1910 -0.6477 0.7376
vn -0.1929 -0.6477 0.7371
vn -0.0449 -0.6461 0.7620
vn -0.7270 -0.6539 -0.2094
vn -0.6710 -0.6535 -0.3502
vn -0.6714 -0.6535 -0.3495
vn -0.7271 -0.6539 -0.2090
vn 0.4888 -0.6414 -0.5914
vn 0.5944 -0.6399 -0.4871
vn 0.5935 -0.6399 -0.4881
vn 0.4876 -0.6414 -0.5923
vn 0.5084 -0.6396 0.5766
vn 0.3875 -0.6410 0.6625
vn 0.3863 -0.6410 0.6632
vn 0.5075 -0.6396 0.5774
vn -0.7183 -0.6534 0.2391
vn -0.7186 -0.6534 0.2382
vn 0.7425 -0.6370 0.2073
vn 0.7424 -0.6370 0.2076
vn -0.3317 -0.6492 0.6845
vn -0.3335 -0.6492 0.6836
vn -0.5883 -0.6529 -0.4771
vn -0.5891 -0.6529 -0.4761
vn -0.0706 -0.6481 -0.7583
vn -0.0726 -0.6481 -0.7581
vn 0.6776 -0.6386 -0.3648
vn 0.6771 -0.6386 -0.3656
vn 0.2519 -0.6426 0.7236
vn 0.2503 -0.6427 0.7241
vn -0.7511 -0.6538 0.0912
vn -0.7512 -0.6538 0.0907
vn 0.0796 -0.6465 -0.7588
vn 0.2266 -0.6448 -0.7300
vn 0.2247 -0.6448 -0.7306
vn 0.0776 -0.6465 -0.7590
vn 0.6891 -0.6375 0.3446
vn 0.6888 -0.6375 0.3451
vn -0.4596 -0.6506 0.6046
vn -0.4610 -0.6506 0.6035
vn -0.4823 -0.6521 -0.5850
vn -0.4834 -0.6521 -0.5840
vn 0.7355 -0.6377 -0.2290
vn 0.7353 -0.6377 -0.2297
vn 0.1066 -0.6443 0.7573
vn 0.1048 -0.6444 0.7575
vn -0.7541 -0.6540 -0.0603
vn 0.3647 -0.6430 -0.6734
vn 0.3631 -0.6430 -0.6742
vn 0.6101 -0.6384 0.4693
vn 0.6096 -0.6384 0.4700
usemtl None
s 1
f 1/1/1 2/2/1 3/3/1 4/4/1
f 4/4/2 3/3/2 5/5/2 6/6/2
f 6/6/3 5/5/3 7/7/3 8/8/3
f 8/8/4 7/7/4 9/9/4 10/10/4
f 10/10/5 9/9/5 11/11/5 12/12/5
f 12/12/6 11/11/6 13/13/6 14/14/6
f 14/14/7 13/13/7 15/15/7 16/16/7
f 16/16/8 15/15/8 17/17/8 18/18/8
f 18/18/9 17/17/9 19/19/9 20/20/9
f 20/20/10 19/19/10 21/21/10 22/22/10
f 22/22/11 21/21/11 23/23/11 24/24/11
f 24/24/12 23/23/12 25/25/12 26/26/12
f 26/26/13 25/25/13 27/27/13 28/28/13
f 28/28/14 27/27/14 29/29/14 30/30/14
f 30/30/15 29/29/15 31/31/15 32/32/15
f 32/32/16 31/31/16 33/33/16 34/34/16
f 34/34/17 33/33/17 35/35/17 36/36/17
f 36/36/18 35/35/18 37/37/18 38/38/18
f 38/38/19 37/37/19 39/39/19 40/40/19
f 40/40/20 39/39/20 41/41/20 42/42/20
f 42/42/21 41/41/21 43/43/21 44/44/21
f 44/44/22 43/43/22 45/45/22 46/46/22
f 46/46/23 45/45/23 47/47/23 48/48/23
f 48/48/24 47/47/24 49/49/24 50/50/24
f 50/50/25 49/49/25 51/51/25 52/52/25
f 52/52/26 51/51/26 53/53/26 54/54/26
f 54/54/27 53/53/27 55/55/27 56/56/27
f 56/56/28 55/55/28 57/57/28 58/58/28
f 58/58/29 57/57/29 59/59/29 60/60/29
f 60/60/30 59/59/30 61/61/30 62/62/30
f 3/63/31 2/64/31 63/65/31 61/66/31 59/67/31 57/68/31 55/69/31 53/70/31 51/71/31 49/72/31 47/73/31 45/74/31 43/75/31 41/76/31 39/77/31 37/78/31 35/79/31 33/80/31 31/81/31 29/82/31 27/83/31 25/84/31 23/85/31 21/86/31 19/87/31 17/88/31 15/89/31 13/90/31 11/91/31 9/92/31 7/93/31 5/94/31
f 62/62/32 61/61/32 63/95/32 64/96/32
f 64/96/33 63/95/33 2/97/33 1/98/33
f 42/42/34 44/44/35 86/99/36 85/100/37
f 65/101/38 66/102/38 67/103/38 68/104/38 69/105/38 70/106/38 71/107/38 72/108/38 73/109/38 74/110/38 75/111/38 76/112/38 77/113/38 78/114/38 79/115/38 80/116/38 81/117/38 82/118/38 83/119/38 84/120/38 85/121/38 86/122/38 87/123/38 88/124/38 89/125/38 90/126/38 91/127/38 92/128/38 93/129/38 94/130/38 95/131/38 96/132/38
f 60/60/39 62/62/40 95/133/41 94/134/42
f 16/16/43 18/18/44 73/135/45 72/136/46
f 34/34/47 36/36/48 82/137/49 81/138/50
f 52/52/51 54/54/52 91/139/53 90/140/54
f 8/8/55 10/10/56 69/141/57 68/142/58
f 26/26/59 28/28/60 78/143/61 77/144/62
f 44/44/35 46/46/63 87/145/64 86/99/36
f 18/18/44 20/20/65 74/146/66 73/135/45
f 36/36/48 38/38/67 83/147/68 82/137/49
f 54/54/52 56/56/69 92/148/70 91/139/53
f 62/62/40 64/96/71 96/149/72 95/133/41
f 10/10/56 12/12/73 70/150/74 69/141/57
f 28/28/60 30/30/75 79/151/76 78/143/61
f 46/46/63 48/48/77 88/152/78 87/145/64
f 1/1/79 4/4/80 66/153/81 65/154/82
f 64/96/71 1/98/79 65/155/82 96/149/72
f 20/20/65 22/22/83 75/156/84 74/146/66
f 38/38/67 40/40/85 84/157/86 83/147/68
f 56/56/69 58/58/87 93/158/88 92/148/70
f 12/12/73 14/14/89 71/159/90 70/150/74
f 30/30/75 32/32/91 80/160/92 79/151/76
f 48/48/77 50/50/93 89/161/93 88/152/78
f 4/4/80 6/6/94 67/162/95 66/153/81
f 22/22/83 24/24/96 76/163/97 75/156/84
f 40/40/85 42/42/34 85/100/37 84/157/86
f 58/58/87 60/60/39 94/134/42 93/158/88
f 14/14/89 16/16/43 72/136/46 71/159/90
f 32/32/91 34/34/47 81/138/50 80/160/92
f 50/50/93 52/52/51 90/140/54 89/161/93
f 6/6/94 8/8/55 68/142/58 67/162/95
f 24/24/96 26/26/59 77/144/62 76/163/97
