# Blender v2.81 (sub 16) OBJ File: ''
# www.blender.org
mtllib Platform3.mtl
o Cylinder
v 0.000000 -0.999997 -20.000000
v 0.000000 1.000003 -18.519114
v 3.612900 1.000003 -18.163273
v 3.901806 -0.999997 -19.615705
v 7.086958 1.000003 -17.109430
v 7.653669 -0.999997 -18.477591
v 10.288668 1.000003 -15.398079
v 11.111404 -0.999997 -16.629393
v 13.094990 1.000002 -13.094990
v 14.142136 -0.999998 -14.142136
v 15.398081 1.000002 -10.288667
v 16.629393 -0.999998 -11.111403
v 17.109428 1.000001 -7.086958
v 18.477591 -0.999999 -7.653668
v 18.163273 1.000001 -3.612901
v 19.615705 -0.999999 -3.901807
v 18.519114 1.000000 -0.000002
v 20.000000 -1.000000 -0.000002
v 18.163275 0.999999 3.612897
v 19.615705 -1.000001 3.901804
v 17.109430 0.999999 7.086954
v 18.477591 -1.000001 7.653666
v 15.398081 0.999998 10.288666
v 16.629393 -1.000002 11.111403
v 13.094990 0.999998 13.094989
v 14.142136 -1.000002 14.142136
v 10.288667 0.999997 15.398081
v 11.111403 -1.000003 16.629393
v 7.086955 0.999997 17.109430
v 7.653666 -1.000003 18.477592
v 3.612895 0.999997 18.163273
v 3.901802 -1.000003 19.615705
v -0.000006 0.999997 18.519112
v -0.000007 -1.000003 20.000000
v -3.612907 0.999997 18.163271
v -3.901814 -1.000003 19.615704
v -7.086966 0.999997 17.109425
v -7.653677 -1.000003 18.477587
v -10.288676 0.999997 15.398073
v -11.111414 -1.000003 16.629387
v -13.094998 0.999998 13.094982
v -14.142145 -1.000002 14.142127
v -15.398087 0.999998 10.288656
v -16.629400 -1.000002 11.111393
v -17.109436 0.999999 7.086944
v -18.477596 -1.000001 7.653654
v -18.163277 0.999999 3.612883
v -19.615709 -1.000001 3.901789
v -18.519112 1.000000 -0.000018
v -20.000000 -1.000000 -0.000019
v -18.163269 1.000001 -3.612919
v -19.615702 -0.999999 -3.901827
v -17.109421 1.000001 -7.086977
v -18.477581 -0.999999 -7.653689
v -15.398067 1.000002 -10.288687
v -16.629379 -0.999998 -11.111425
v -13.094973 1.000002 -13.095007
v -14.142118 -0.999998 -14.142153
v -10.288647 1.000003 -15.398094
v -11.111382 -0.999997 -16.629408
v -7.086933 1.000003 -17.109440
v -7.653642 -0.999997 -18.477602
v -3.612871 1.000003 -18.163279
v -3.901776 -0.999997 -19.615711
vt 1.000000 0.500000
vt 1.000000 1.000000
vt 0.968750 1.000000
vt 0.968750 0.500000
vt 0.937500 1.000000
vt 0.937500 0.500000
vt 0.906250 1.000000
vt 0.906250 0.500000
vt 0.875000 1.000000
vt 0.875000 0.500000
vt 0.843750 1.000000
vt 0.843750 0.500000
vt 0.812500 1.000000
vt 0.812500 0.500000
vt 0.781250 1.000000
vt 0.781250 0.500000
vt 0.750000 1.000000
vt 0.750000 0.500000
vt 0.718750 1.000000
vt 0.718750 0.500000
vt 0.687500 1.000000
vt 0.687500 0.500000
vt 0.656250 1.000000
vt 0.656250 0.500000
vt 0.625000 1.000000
vt 0.625000 0.500000
vt 0.593750 1.000000
vt 0.593750 0.500000
vt 0.562500 1.000000
vt 0.562500 0.500000
vt 0.531250 1.000000
vt 0.531250 0.500000
vt 0.500000 1.000000
vt 0.500000 0.500000
vt 0.468750 1.000000
vt 0.468750 0.500000
vt 0.437500 1.000000
vt 0.437500 0.500000
vt 0.406250 1.000000
vt 0.406250 0.500000
vt 0.375000 1.000000
vt 0.375000 0.500000
vt 0.343750 1.000000
vt 0.343750 0.500000
vt 0.312500 1.000000
vt 0.312500 0.500000
vt 0.281250 1.000000
vt 0.281250 0.500000
vt 0.250000 1.000000
vt 0.250000 0.500000
vt 0.218750 1.000000
vt 0.218750 0.500000
vt 0.187500 1.000000
vt 0.187500 0.500000
vt 0.156250 1.000000
vt 0.156250 0.500000
vt 0.125000 1.000000
vt 0.125000 0.500000
vt 0.093750 1.000000
vt 0.093750 0.500000
vt 0.062500 1.000000
vt 0.062500 0.500000
vt 0.296822 0.485388
vt 0.250000 0.490000
vt 0.203179 0.485389
vt 0.158156 0.471731
vt 0.116663 0.449553
vt 0.080295 0.419706
vt 0.050447 0.383337
vt 0.028269 0.341844
vt 0.014612 0.296822
vt 0.010000 0.250000
vt 0.014611 0.203179
vt 0.028269 0.158156
vt 0.050447 0.116663
vt 0.080294 0.080294
vt 0.116663 0.050447
vt 0.158156 0.028269
vt 0.203178 0.014612
vt 0.250000 0.010000
vt 0.296822 0.014612
vt 0.341844 0.028269
vt 0.383337 0.050447
vt 0.419706 0.080294
vt 0.449553 0.116663
vt 0.471731 0.158156
vt 0.485388 0.203178
vt 0.490000 0.250000
vt 0.485388 0.296822
vt 0.471731 0.341844
vt 0.449553 0.383337
vt 0.419706 0.419706
vt 0.383337 0.449553
vt 0.341844 0.471731
vt 0.031250 1.000000
vt 0.031250 0.500000
vt 0.000000 1.000000
vt 0.000000 0.500000
vt 0.750000 0.490000
vt 0.796822 0.485388
vt 0.841844 0.471731
vt 0.883337 0.449553
vt 0.919706 0.419706
vt 0.949553 0.383337
vt 0.971731 0.341844
vt 0.985388 0.296822
vt 0.990000 0.250000
vt 0.985388 0.203178
vt 0.971731 0.158156
vt 0.949553 0.116663
vt 0.919706 0.080294
vt 0.883337 0.050447
vt 0.841844 0.028269
vt 0.796822 0.014612
vt 0.750000 0.010000
vt 0.703178 0.014612
vt 0.658156 0.028269
vt 0.616663 0.050447
vt 0.580294 0.080294
vt 0.550447 0.116663
vt 0.528269 0.158156
vt 0.514611 0.203179
vt 0.510000 0.250000
vt 0.514612 0.296822
vt 0.528269 0.341844
vt 0.550447 0.383337
vt 0.580295 0.419706
vt 0.616663 0.449553
vt 0.658156 0.471731
vt 0.703179 0.485389
vn 0.0789 0.5932 -0.8012
vn 0.2337 0.5932 -0.7704
vn 0.3795 0.5932 -0.7100
vn 0.5107 0.5932 -0.6223
vn 0.6223 0.5932 -0.5107
vn 0.7100 0.5932 -0.3795
vn 0.7704 0.5932 -0.2337
vn 0.8012 0.5932 -0.0789
vn 0.8012 0.5932 0.0789
vn 0.7704 0.5932 0.2337
vn 0.7100 0.5932 0.3795
vn 0.6223 0.5932 0.5107
vn 0.5107 0.5932 0.6223
vn 0.3795 0.5932 0.7100
vn 0.2337 0.5932 0.7704
vn 0.0789 0.5932 0.8012
vn -0.0789 0.5932 0.8012
vn -0.2337 0.5932 0.7704
vn -0.3795 0.5932 0.7100
vn -0.5107 0.5932 0.6223
vn -0.6223 0.5932 0.5107
vn -0.7100 0.5932 0.3795
vn -0.7704 0.5932 0.2337
vn -0.8012 0.5932 0.0789
vn -0.8012 0.5932 -0.0789
vn -0.7704 0.5932 -0.2337
vn -0.7100 0.5932 -0.3795
vn -0.6223 0.5932 -0.5107
vn -0.5107 0.5932 -0.6223
vn -0.3795 0.5932 -0.7100
vn -0.0000 1.0000 0.0000
vn -0.2337 0.5932 -0.7704
vn -0.0789 0.5932 -0.8012
vn 0.0000 -1.0000 -0.0000
usemtl Material
s 1
f 1/1/1 2/2/1 3/3/1 4/4/1
f 4/4/2 3/3/2 5/5/2 6/6/2
f 6/6/3 5/5/3 7/7/3 8/8/3
f 8/8/4 7/7/4 9/9/4 10/10/4
f 10/10/5 9/9/5 11/11/5 12/12/5
f 12/12/6 11/11/6 13/13/6 14/14/6
f 14/14/7 13/13/7 15/15/7 16/16/7
f 16/16/8 15/15/8 17/17/8 18/18/8
f 18/18/9 17/17/9 19/19/9 20/20/9
f 20/20/10 19/19/10 21/21/10 22/22/10
f 22/22/11 21/21/11 23/23/11 24/24/11
f 24/24/12 23/23/12 25/25/12 26/26/12
f 26/26/13 25/25/13 27/27/13 28/28/13
f 28/28/14 27/27/14 29/29/14 30/30/14
f 30/30/15 29/29/15 31/31/15 32/32/15
f 32/32/16 31/31/16 33/33/16 34/34/16
f 34/34/17 33/33/17 35/35/17 36/36/17
f 36/36/18 35/35/18 37/37/18 38/38/18
f 38/38/19 37/37/19 39/39/19 40/40/19
f 40/40/20 39/39/20 41/41/20 42/42/20
f 42/42/21 41/41/21 43/43/21 44/44/21
f 44/44/22 43/43/22 45/45/22 46/46/22
f 46/46/23 45/45/23 47/47/23 48/48/23
f 48/48/24 47/47/24 49/49/24 50/50/24
f 50/50/25 49/49/25 51/51/25 52/52/25
f 52/52/26 51/51/26 53/53/26 54/54/26
f 54/54/27 53/53/27 55/55/27 56/56/27
f 56/56/28 55/55/28 57/57/28 58/58/28
f 58/58/29 57/57/29 59/59/29 60/60/29
f 60/60/30 59/59/30 61/61/30 62/62/30
f 3/63/31 2/64/31 63/65/31 61/66/31 59/67/31 57/68/31 55/69/31 53/70/31 51/71/31 49/72/31 47/73/31 45/74/31 43/75/31 41/76/31 39/77/31 37/78/31 35/79/31 33/80/31 31/81/31 29/82/31 27/83/31 25/84/31 23/85/31 21/86/31 19/87/31 17/88/31 15/89/31 13/90/31 11/91/31 9/92/31 7/93/31 5/94/31
f 62/62/32 61/61/32 63/95/32 64/96/32
f 64/96/33 63/95/33 2/97/33 1/98/33
f 1/99/34 4/100/34 6/101/34 8/102/34 10/103/34 12/104/34 14/105/34 16/106/34 18/107/34 20/108/34 22/109/34 24/110/34 26/111/34 28/112/34 30/113/34 32/114/34 34/115/34 36/116/34 38/117/34 40/118/34 42/119/34 44/120/34 46/121/34 48/122/34 50/123/34 52/124/34 54/125/34 56/126/34 58/127/34 60/128/34 62/129/34 64/130/34
