# Blender v2.81 (sub 16) OBJ File: ''
# www.blender.org
mtllib RedMushroom.mtl
o Mushroom1_Icosphere.001
v 0.690585 6.076821 1.331512
v 0.934780 6.299404 1.066804
v 1.017802 6.299404 1.481955
v 0.514291 6.299404 1.017474
v 0.648622 6.299404 1.689212
v 0.337436 6.299404 1.402136
v 0.732548 6.659557 0.973819
v 1.043734 6.659557 1.260895
v 0.866885 6.659555 1.645557
v 0.446396 6.659555 1.596227
v 0.363368 6.659557 1.181076
v 0.690585 6.882140 1.331513
v 0.452607 4.685931 -0.560035
v -0.713502 4.678234 -0.823926
v -0.928563 4.677797 0.430068
v -1.039732 0.007117 -0.354198
v 0.385024 -0.006748 -0.735601
v 0.526546 -0.005999 0.326168
v -0.655632 0.001161 -0.822056
v -0.393533 2.796799 0.831583
v -0.690304 -0.006780 0.560025
v 0.801786 2.184117 -0.285191
v -0.016955 2.144120 -1.089480
v -1.029688 4.680968 -0.243824
v 0.592550 4.688965 0.034013
v 0.179777 4.673970 0.671922
v -0.047732 4.684476 -0.909857
v -0.756221 6.712021 -0.382749
v -0.512025 6.934604 -0.647464
v -0.429004 6.934604 -0.232306
v -0.932514 6.934604 -0.696787
v -0.798184 6.934604 -0.025049
v -1.109370 6.934604 -0.312125
v -0.714257 7.294751 -0.740442
v -0.403065 7.294751 -0.453366
v -0.579921 7.294751 -0.068704
v -1.000410 7.294751 -0.118034
v -1.083437 7.294751 -0.533185
v -0.756221 7.517334 -0.382749
v -1.389473 6.076821 1.035759
v -1.145278 6.299404 0.771044
v -1.062250 6.299404 1.186195
v -1.565766 6.299404 0.721714
v -1.431430 6.299404 1.393452
v -1.742622 6.299404 1.106382
v -1.347510 6.659557 0.678065
v -1.036318 6.659557 0.965135
v -1.213173 6.659557 1.349804
v -1.633662 6.659557 1.300474
v -1.716689 6.659557 0.885323
v -1.389473 6.882140 1.035759
v 1.508664 6.076821 -0.527592
v 1.752853 6.299404 -0.792300
v 1.835881 6.299404 -0.377149
v 1.332365 6.299404 -0.841630
v 1.466701 6.299404 -0.169892
v 1.155509 6.299404 -0.456968
v 1.550628 6.659557 -0.885285
v 1.861813 6.659557 -0.598209
v 1.684958 6.659557 -0.213547
v 1.264469 6.659557 -0.262877
v 1.181448 6.659557 -0.678028
v 1.508664 6.882140 -0.527591
v 0.887336 4.674195 -2.181274
v 1.131525 4.896780 -2.445989
v 1.214553 4.896780 -2.030831
v 0.711036 4.896780 -2.495312
v 0.845372 4.896780 -1.823574
v 0.534181 4.896780 -2.110650
v 0.929293 5.256927 -2.538968
v 1.240485 5.256927 -2.251891
v 1.063629 5.256927 -1.867229
v 0.643141 5.256927 -1.916559
v 0.560113 5.256927 -2.331710
v 0.887336 5.479508 -2.181274
v -2.472286 4.400066 0.189287
v -2.228097 4.622649 -0.075428
v -2.145069 4.622649 0.339730
v -2.648586 4.622649 -0.124757
v -2.514249 4.622649 0.546981
v -2.825441 4.622649 0.259911
v -2.430329 4.982796 -0.168406
v -2.119137 4.982796 0.118664
v -2.295992 4.982796 0.503332
v -2.716481 4.982796 0.454002
v -2.799509 4.982796 0.038851
v -2.472286 5.205379 0.189287
v 0.239782 4.610744 1.978386
v 0.483971 4.833325 1.713671
v 0.566998 4.833325 2.128828
v 0.063488 4.833325 1.664341
v 0.197818 4.833325 2.336079
v -0.113367 4.833325 2.049009
v 0.281745 5.193472 1.620692
v 0.592931 5.193472 1.907762
v 0.416075 5.193472 2.292431
v -0.004407 5.193472 2.243101
v -0.087435 5.193472 1.827949
v 0.239782 5.416057 1.978386
v -1.394124 4.674195 -1.981065
v -1.149935 4.896780 -2.245780
v -1.066907 4.896780 -1.830622
v -1.570423 4.896780 -2.295103
v -1.436087 4.896780 -1.623365
v -1.747279 4.896780 -1.910441
v -1.352166 5.256927 -2.338758
v -1.040975 5.256927 -2.051682
v -1.217830 5.256927 -1.667020
v -1.638319 5.256927 -1.716350
v -1.721347 5.256927 -2.131501
v -1.394124 5.479508 -1.981065
v -0.180532 5.228633 -0.160334
v 1.594183 4.202872 -1.586845
v 1.827560 4.228161 0.762890
v -0.107974 4.202869 2.115475
v -2.454788 4.202872 -0.049427
v -0.988792 4.202872 -2.289010
v 0.846996 4.982491 -2.395286
v 2.149364 4.830299 0.910855
v -1.009998 4.272590 2.060284
v -2.695087 4.830299 0.342539
v -1.988565 4.982491 -1.828212
v 1.964431 4.982490 -1.364474
v 0.301834 4.982490 2.251753
v -0.662899 4.982491 -2.572416
v 0.037856 6.679530 -2.021910
v -1.204827 6.255939 -1.984941
v -0.820364 7.396532 -0.454496
v -2.359381 6.251454 -0.425386
v -1.451413 6.679527 1.217359
v 0.736993 6.679525 1.474089
v -0.424334 6.255936 1.917876
v 1.657422 6.679527 -0.527885
v 1.720616 6.255942 0.713748
v 1.238244 6.255939 -1.698339
vt 0.818181 0.000000
vt 0.727272 0.157461
vt 0.909090 0.157461
vt 0.636363 0.000000
vt 0.545454 0.157461
vt 0.090909 0.000000
vt 0.000000 0.157461
vt 0.181818 0.157461
vt 0.272727 0.000000
vt 0.363636 0.157461
vt 0.454545 0.000000
vt 0.636363 0.314921
vt 0.818181 0.314921
vt 0.090909 0.314921
vt 0.272727 0.314921
vt 0.454545 0.314921
vt 1.000000 0.314921
vt 0.727272 0.472382
vt 0.909090 0.472382
vt 0.181818 0.472382
vt 0.363636 0.472382
vt 0.545454 0.472382
vt 0.490000 0.250000
vt 0.250000 0.490000
vt 0.010000 0.250000
vt 0.580294 0.419706
vt 0.972728 0.291699
vt 0.836866 0.045981
vt 0.125000 0.501714
vt 0.000000 0.998014
vt 0.000000 0.500733
vt 0.563983 0.500424
vt 0.375000 0.798091
vt 0.307305 0.500147
vt 0.679865 0.750000
vt 0.780714 0.500161
vt 1.000000 0.998014
vt 0.875000 0.728703
vt 1.000000 0.500733
vt 0.250000 0.997369
vt 0.125000 0.998244
vt 0.625000 0.999532
vt 0.452819 0.996471
vt 0.750000 0.999233
vt 0.875000 0.999054
vt 0.419706 0.419706
vt 0.080294 0.419706
vt 0.184977 0.036933
vt 0.419706 0.080294
vt 0.750000 0.490000
vt 0.542226 0.172200
vt 0.818181 0.000000
vt 0.727272 0.157461
vt 0.909090 0.157461
vt 0.636363 0.000000
vt 0.545454 0.157461
vt 0.090909 0.000000
vt 0.000000 0.157461
vt 0.181818 0.157461
vt 0.272727 0.000000
vt 0.363636 0.157461
vt 0.454545 0.000000
vt 0.636363 0.314921
vt 0.818181 0.314921
vt 0.090909 0.314921
vt 0.272727 0.314921
vt 0.454545 0.314921
vt 1.000000 0.314921
vt 0.727272 0.472382
vt 0.909090 0.472382
vt 0.181818 0.472382
vt 0.363636 0.472382
vt 0.545454 0.472382
vt 0.818181 0.000000
vt 0.727272 0.157461
vt 0.909090 0.157461
vt 0.636363 0.000000
vt 0.545454 0.157461
vt 0.090909 0.000000
vt 0.000000 0.157461
vt 0.181818 0.157461
vt 0.272727 0.000000
vt 0.363636 0.157461
vt 0.454545 0.000000
vt 0.636363 0.314921
vt 0.818181 0.314921
vt 0.090909 0.314921
vt 0.272727 0.314921
vt 0.454545 0.314921
vt 1.000000 0.314921
vt 0.727272 0.472382
vt 0.909090 0.472382
vt 0.181818 0.472382
vt 0.363636 0.472382
vt 0.545454 0.472382
vt 0.818181 0.000000
vt 0.727272 0.157461
vt 0.909090 0.157461
vt 0.636363 0.000000
vt 0.545454 0.157461
vt 0.090909 0.000000
vt 0.000000 0.157461
vt 0.181818 0.157461
vt 0.272727 0.000000
vt 0.363636 0.157461
vt 0.454545 0.000000
vt 0.636363 0.314921
vt 0.818181 0.314921
vt 0.090909 0.314921
vt 0.272727 0.314921
vt 0.454545 0.314921
vt 1.000000 0.314921
vt 0.727272 0.472382
vt 0.909090 0.472382
vt 0.181818 0.472382
vt 0.363636 0.472382
vt 0.545454 0.472382
vt 0.818181 0.000000
vt 0.727272 0.157461
vt 0.909090 0.157461
vt 0.636363 0.000000
vt 0.545454 0.157461
vt 0.090909 0.000000
vt 0.000000 0.157461
vt 0.181818 0.157461
vt 0.272727 0.000000
vt 0.363636 0.157461
vt 0.454545 0.000000
vt 0.636363 0.314921
vt 0.818181 0.314921
vt 0.090909 0.314921
vt 0.272727 0.314921
vt 0.454545 0.314921
vt 1.000000 0.314921
vt 0.727272 0.472382
vt 0.909090 0.472382
vt 0.181818 0.472382
vt 0.363636 0.472382
vt 0.545454 0.472382
vt 0.818181 0.000000
vt 0.727272 0.157461
vt 0.909090 0.157461
vt 0.636363 0.000000
vt 0.545454 0.157461
vt 0.090909 0.000000
vt 0.000000 0.157461
vt 0.181818 0.157461
vt 0.272727 0.000000
vt 0.363636 0.157461
vt 0.454545 0.000000
vt 0.636363 0.314921
vt 0.818181 0.314921
vt 0.090909 0.314921
vt 0.272727 0.314921
vt 0.454545 0.314921
vt 1.000000 0.314921
vt 0.727272 0.472382
vt 0.909090 0.472382
vt 0.181818 0.472382
vt 0.363636 0.472382
vt 0.545454 0.472382
vt 0.818181 0.000000
vt 0.727272 0.157461
vt 0.909090 0.157461
vt 0.636363 0.000000
vt 0.545454 0.157461
vt 0.090909 0.000000
vt 0.000000 0.157461
vt 0.181818 0.157461
vt 0.272727 0.000000
vt 0.363636 0.157461
vt 0.454545 0.000000
vt 0.636363 0.314921
vt 0.818181 0.314921
vt 0.090909 0.314921
vt 0.272727 0.314921
vt 0.454545 0.314921
vt 1.000000 0.314921
vt 0.727272 0.472382
vt 0.909090 0.472382
vt 0.181818 0.472382
vt 0.363636 0.472382
vt 0.545454 0.472382
vt 0.818181 0.000000
vt 0.727272 0.157461
vt 0.909090 0.157461
vt 0.636363 0.000000
vt 0.545454 0.157461
vt 0.090909 0.000000
vt 0.000000 0.157461
vt 0.181818 0.157461
vt 0.272727 0.000000
vt 0.363636 0.157461
vt 0.454545 0.000000
vt 0.636363 0.314921
vt 0.818181 0.314921
vt 0.090909 0.314921
vt 0.272727 0.314921
vt 0.454545 0.314921
vt 1.000000 0.314921
vt 0.727272 0.472382
vt 0.909090 0.472382
vt 0.181818 0.472382
vt 0.363636 0.472382
vt 0.545454 0.472382
vt 0.818181 0.000000
vt 0.747056 0.156889
vt 0.908666 0.156726
vt 0.090909 0.000000
vt 0.000424 0.156726
vt 0.161373 0.156889
vt 0.272727 0.000000
vt 0.384080 0.156889
vt 0.454545 0.000000
vt 0.565238 0.156889
vt 0.681818 0.236191
vt 0.909090 0.236191
vt 0.245098 0.205316
vt 0.363636 0.236191
vt 0.500000 0.236191
vt 0.772726 0.236191
vt 0.136363 0.236191
vt 0.590909 0.236191
vt 0.613494 0.354532
vt 0.545454 0.314921
vt 0.522392 0.432438
vt 0.408527 0.314921
vt 0.386698 0.432438
vt 0.295596 0.354532
vt 0.249858 0.354532
vt 0.113778 0.354532
vt 0.181818 0.472382
vt 0.181818 0.314921
vt 0.977131 0.354532
vt 0.841050 0.354532
vt 0.909090 0.472382
vt 0.909091 0.314921
vt 0.795312 0.354532
vt 0.659232 0.354532
vt 0.727272 0.472382
vt 0.727272 0.314921
vt 0.045454 0.236191
vt 0.636363 0.000000
vn 0.5953 -0.7947 -0.1190
vn 0.0707 -0.7946 -0.6029
vn 0.2972 -0.7947 0.5293
vn -0.4116 -0.7947 0.4462
vn -0.5516 -0.7946 -0.2536
vn 0.1144 -0.1876 -0.9756
vn 0.9632 -0.1876 -0.1926
vn 0.4808 -0.1876 0.8565
vn -0.6660 -0.1876 0.7220
vn -0.8924 -0.1876 -0.4103
vn 0.6660 0.1876 -0.7220
vn 0.8924 0.1876 0.4103
vn -0.1144 0.1876 0.9756
vn -0.9632 0.1876 0.1926
vn -0.4808 0.1876 -0.8565
vn 0.4116 0.7947 -0.4462
vn 0.5516 0.7947 0.2536
vn -0.0707 0.7947 0.6029
vn -0.5953 0.7946 0.1191
vn -0.2972 0.7947 -0.5294
vn -0.0112 0.9999 0.0041
vn -0.0053 1.0000 0.0076
vn -0.0079 1.0000 -0.0038
vn -0.0087 -1.0000 0.0039
vn -0.0095 -0.9999 0.0062
vn -0.0092 -1.0000 0.0019
vn -0.7729 -0.0098 -0.6344
vn 0.1876 -0.1143 0.9756
vn 0.9786 -0.1594 -0.1303
vn -0.3720 -0.0050 -0.9282
vn -0.9889 -0.0014 0.1484
vn 0.8396 0.0009 0.5433
vn 0.7030 0.0195 -0.7109
vn 0.7002 0.0193 -0.7137
vn 0.6997 0.0123 -0.7144
vn -0.1283 0.0684 -0.9894
vn 0.0808 -0.1471 -0.9858
vn -0.2104 0.1465 0.9666
vn -0.0084 0.9999 0.0078
vn 0.0135 0.9999 0.0027
vn -0.0015 0.9997 0.0225
vn -0.0082 1.0000 -0.0032
vn -0.0081 -0.9999 0.0061
vn -0.0021 -0.9999 -0.0144
vn -0.9336 -0.0376 0.3563
vn -0.6223 -0.0099 0.7827
vn 0.3860 -0.0395 0.9217
vn 0.8700 0.0281 0.4923
vn 0.7004 0.0135 -0.7136
vn -0.8779 0.0132 -0.4786
vn 0.9673 0.1099 -0.2284
vn 0.5717 0.0648 -0.8179
vn 0.0707 -0.7947 -0.6029
vn -0.5953 0.7947 0.1191
vn -0.2972 0.7946 -0.5294
vn 0.5953 -0.7947 -0.1191
vn 0.2972 -0.7947 0.5294
vn -0.4116 -0.7946 0.4462
vn 0.5953 -0.7946 -0.1191
vn -0.5516 -0.7947 -0.2536
vn -0.5953 0.7947 0.1190
vn 0.4116 0.7946 -0.4462
vn -0.2972 0.7947 -0.5293
vn 0.5516 0.7946 0.2536
vn -0.4657 -0.8832 0.0558
vn -0.2608 -0.8832 -0.3898
vn 0.3622 -0.8454 -0.3926
vn 0.4071 -0.8737 0.2664
vn 0.2099 -0.5996 -0.7723
vn 0.8872 -0.4537 -0.0832
vn -0.6753 -0.5591 0.4810
vn -0.6696 -0.5996 -0.4383
vn 0.6738 -0.1117 -0.7304
vn -0.0709 -0.1355 0.9882
vn -0.4865 -0.1117 -0.8665
vn -0.2886 0.8010 -0.5245
vn -0.5506 0.7297 -0.4055
vn -0.5912 0.7977 0.1189
vn -0.0445 0.9241 0.3795
vn -0.0690 0.8056 0.5884
vn 0.2792 0.9516 0.1284
vn 0.5382 0.8057 0.2475
vn 0.2591 0.9241 -0.2809
vn 0.4017 0.8057 -0.4354
vn -0.1503 0.3607 -0.9205
vn -0.4806 0.1904 -0.8560
vn -0.7411 0.3887 -0.5475
vn -0.8436 0.3955 0.3632
vn -0.4920 0.2060 0.8459
vn -0.2129 0.1324 0.9681
vn 0.2152 0.3607 0.9075
vn 0.6606 0.2942 0.6907
vn 0.9543 0.2942 0.0518
vn 0.8290 0.3607 -0.4274
vn 0.6656 0.1904 -0.7216
vn 0.3593 0.3607 -0.8607
vn -0.9504 0.0596 -0.3052
vn -0.9351 -0.1610 -0.3156
vn -0.6879 0.1243 0.7151
vn 0.5856 0.2087 0.7832
vn 0.5155 -0.4032 0.7561
vn 0.5144 -0.4537 0.7277
vn 0.9758 0.2087 -0.0653
vn 0.9095 -0.4032 -0.1009
vn 0.1124 0.2643 -0.9579
vn 0.1078 -0.3792 -0.9190
vn -0.0822 -0.9926 0.0891
vn -0.1276 -0.8737 0.4695
usemtl Material.020
s 1
f 1/1/1 2/2/1 3/3/1
f 2/2/2 1/4/2 4/5/2
f 1/6/3 3/7/3 5/8/3
f 1/9/4 5/8/4 6/10/4
f 1/11/5 6/10/5 4/5/5
f 2/2/6 4/5/6 7/12/6
f 3/3/7 2/2/7 8/13/7
f 5/8/8 3/7/8 9/14/8
f 6/10/9 5/8/9 10/15/9
f 4/5/10 6/10/10 11/16/10
f 2/2/11 7/12/11 8/13/11
f 3/3/12 8/13/12 9/17/12
f 5/8/13 9/14/13 10/15/13
f 6/10/14 10/15/14 11/16/14
f 4/5/15 11/16/15 7/12/15
f 8/13/16 7/12/16 12/18/16
f 9/17/17 8/13/17 12/19/17
f 10/15/18 9/14/18 12/20/18
f 11/16/19 10/15/19 12/21/19
f 7/12/20 11/16/20 12/22/20
f 13/23/21 14/24/22 15/25/23
f 16/26/24 17/27/25 18/28/26
f 16/29/27 14/30/27 19/31/27
f 18/32/28 20/33/28 21/34/28
f 22/35/29 18/32/29 17/36/29
f 14/37/30 23/38/30 19/39/30
f 15/40/31 24/41/31 16/29/31
f 25/42/32 26/43/32 22/35/32
f 23/38/33 13/44/34 22/35/35
f 14/37/36 27/45/36 23/38/36
f 19/39/37 23/38/37 17/36/37
f 20/33/38 26/43/38 15/40/38
f 13/23/21 27/46/39 14/24/22
f 14/24/40 24/47/40 15/25/40
f 26/48/41 25/49/41 15/25/41
f 25/49/42 13/23/21 15/25/23
f 16/26/24 19/50/43 17/27/25
f 21/51/44 16/26/44 18/28/44
f 21/34/45 15/40/45 16/29/45
f 21/34/46 20/33/46 15/40/46
f 18/32/47 26/43/47 20/33/47
f 22/35/48 26/43/48 18/32/48
f 23/38/33 22/35/35 17/36/49
f 16/29/50 24/41/50 14/30/50
f 13/44/51 25/42/51 22/35/51
f 23/38/52 27/45/52 13/44/52
f 28/52/1 29/53/1 30/54/1
f 29/53/53 28/55/53 31/56/53
f 28/57/3 30/58/3 32/59/3
f 28/60/4 32/59/4 33/61/4
f 28/62/5 33/61/5 31/56/5
f 29/53/6 31/56/6 34/63/6
f 30/54/7 29/53/7 35/64/7
f 32/59/8 30/58/8 36/65/8
f 33/61/9 32/59/9 37/66/9
f 31/56/10 33/61/10 38/67/10
f 29/53/11 34/63/11 35/64/11
f 30/54/12 35/64/12 36/68/12
f 32/59/13 36/65/13 37/66/13
f 33/61/14 37/66/14 38/67/14
f 31/56/15 38/67/15 34/63/15
f 35/64/16 34/63/16 39/69/16
f 36/68/17 35/64/17 39/70/17
f 37/66/18 36/65/18 39/71/18
f 38/67/54 37/66/54 39/72/54
f 34/63/55 38/67/55 39/73/55
f 40/74/56 41/75/56 42/76/56
f 41/75/53 40/77/53 43/78/53
f 40/79/57 42/80/57 44/81/57
f 40/82/58 44/81/58 45/83/58
f 40/84/5 45/83/5 43/78/5
f 41/75/6 43/78/6 46/85/6
f 42/76/7 41/75/7 47/86/7
f 44/81/8 42/80/8 48/87/8
f 45/83/9 44/81/9 49/88/9
f 43/78/10 45/83/10 50/89/10
f 41/75/11 46/85/11 47/86/11
f 42/76/12 47/86/12 48/90/12
f 44/81/13 48/87/13 49/88/13
f 45/83/14 49/88/14 50/89/14
f 43/78/15 50/89/15 46/85/15
f 47/86/16 46/85/16 51/91/16
f 48/90/17 47/86/17 51/92/17
f 49/88/18 48/87/18 51/93/18
f 50/89/19 49/88/19 51/94/19
f 46/85/20 50/89/20 51/95/20
f 52/96/59 53/97/59 54/98/59
f 53/97/2 52/99/2 55/100/2
f 52/101/3 54/102/3 56/103/3
f 52/104/4 56/103/4 57/105/4
f 52/106/60 57/105/60 55/100/60
f 53/97/6 55/100/6 58/107/6
f 54/98/7 53/97/7 59/108/7
f 56/103/8 54/102/8 60/109/8
f 57/105/9 56/103/9 61/110/9
f 55/100/10 57/105/10 62/111/10
f 53/97/11 58/107/11 59/108/11
f 54/98/12 59/108/12 60/112/12
f 56/103/13 60/109/13 61/110/13
f 57/105/14 61/110/14 62/111/14
f 55/100/15 62/111/15 58/107/15
f 59/108/16 58/107/16 63/113/16
f 60/112/17 59/108/17 63/114/17
f 61/110/18 60/109/18 63/115/18
f 62/111/61 61/110/61 63/116/61
f 58/107/20 62/111/20 63/117/20
f 64/118/59 65/119/59 66/120/59
f 65/119/2 64/121/2 67/122/2
f 64/123/57 66/124/57 68/125/57
f 64/126/4 68/125/4 69/127/4
f 64/128/60 69/127/60 67/122/60
f 65/119/6 67/122/6 70/129/6
f 66/120/7 65/119/7 71/130/7
f 68/125/8 66/124/8 72/131/8
f 69/127/9 68/125/9 73/132/9
f 67/122/10 69/127/10 74/133/10
f 65/119/11 70/129/11 71/130/11
f 66/120/12 71/130/12 72/134/12
f 68/125/13 72/131/13 73/132/13
f 69/127/14 73/132/14 74/133/14
f 67/122/15 74/133/15 70/129/15
f 71/130/62 70/129/62 75/135/62
f 72/134/17 71/130/17 75/136/17
f 73/132/18 72/131/18 75/137/18
f 74/133/61 73/132/61 75/138/61
f 70/129/63 74/133/63 75/139/63
f 76/140/59 77/141/59 78/142/59
f 77/141/53 76/143/53 79/144/53
f 76/145/57 78/146/57 80/147/57
f 76/148/4 80/147/4 81/149/4
f 76/150/60 81/149/60 79/144/60
f 77/141/6 79/144/6 82/151/6
f 78/142/7 77/141/7 83/152/7
f 80/147/8 78/146/8 84/153/8
f 81/149/9 80/147/9 85/154/9
f 79/144/10 81/149/10 86/155/10
f 77/141/11 82/151/11 83/152/11
f 78/142/12 83/152/12 84/156/12
f 80/147/13 84/153/13 85/154/13
f 81/149/14 85/154/14 86/155/14
f 79/144/15 86/155/15 82/151/15
f 83/152/62 82/151/62 87/157/62
f 84/156/17 83/152/17 87/158/17
f 85/154/18 84/153/18 87/159/18
f 86/155/54 85/154/54 87/160/54
f 82/151/63 86/155/63 87/161/63
f 88/162/1 89/163/1 90/164/1
f 89/163/53 88/165/53 91/166/53
f 88/167/57 90/168/57 92/169/57
f 88/170/4 92/169/4 93/171/4
f 88/172/60 93/171/60 91/166/60
f 89/163/6 91/166/6 94/173/6
f 90/164/7 89/163/7 95/174/7
f 92/169/8 90/168/8 96/175/8
f 93/171/9 92/169/9 97/176/9
f 91/166/10 93/171/10 98/177/10
f 89/163/11 94/173/11 95/174/11
f 90/164/12 95/174/12 96/178/12
f 92/169/13 96/175/13 97/176/13
f 93/171/14 97/176/14 98/177/14
f 91/166/15 98/177/15 94/173/15
f 95/174/16 94/173/16 99/179/16
f 96/178/64 95/174/64 99/180/64
f 97/176/18 96/175/18 99/181/18
f 98/177/19 97/176/19 99/182/19
f 94/173/55 98/177/55 99/183/55
f 100/184/59 101/185/59 102/186/59
f 101/185/2 100/187/2 103/188/2
f 100/189/57 102/190/57 104/191/57
f 100/192/4 104/191/4 105/193/4
f 100/194/60 105/193/60 103/188/60
f 101/185/6 103/188/6 106/195/6
f 102/186/7 101/185/7 107/196/7
f 104/191/8 102/190/8 108/197/8
f 105/193/9 104/191/9 109/198/9
f 103/188/10 105/193/10 110/199/10
f 101/185/11 106/195/11 107/196/11
f 102/186/12 107/196/12 108/200/12
f 104/191/13 108/197/13 109/198/13
f 105/193/14 109/198/14 110/199/14
f 103/188/15 110/199/15 106/195/15
f 107/196/62 106/195/62 111/201/62
f 108/200/17 107/196/17 111/202/17
f 109/198/18 108/197/18 111/203/18
f 110/199/54 109/198/54 111/204/54
f 106/195/20 110/199/20 111/205/20
usemtl Mushroom3_1.002
f 112/206/65 113/207/65 114/208/65
f 112/209/66 114/210/66 115/211/66
f 112/212/67 115/211/67 116/213/67
f 112/214/68 116/213/68 117/215/68
f 113/207/69 117/215/69 118/216/69
f 114/208/70 113/207/70 119/217/70
f 116/213/71 120/218/71 121/219/71
f 117/215/72 116/213/72 122/220/72
f 113/207/73 118/216/73 123/221/73
f 115/211/74 124/222/74 120/218/74
f 117/215/75 122/220/75 125/223/75
f 126/224/76 127/225/76 128/226/76
f 127/225/77 129/227/77 128/226/77
f 128/228/78 129/227/78 130/229/78
f 130/230/79 131/231/79 128/232/79
f 130/230/80 132/233/80 131/231/80
f 131/234/81 133/235/81 128/236/81
f 131/234/82 134/237/82 133/235/82
f 133/238/83 126/239/83 128/240/83
f 133/238/84 135/241/84 126/239/84
f 125/223/85 127/225/85 126/239/85
f 125/223/86 122/220/86 127/225/86
f 122/220/87 129/227/87 127/225/87
f 121/219/88 130/229/88 129/227/88
f 120/218/89 132/233/89 130/229/89
f 120/218/90 124/222/90 132/233/90
f 124/222/91 131/231/91 132/233/91
f 119/217/92 134/237/92 131/234/92
f 119/217/93 133/235/93 134/237/93
f 123/221/94 135/241/94 133/235/94
f 123/221/95 118/216/95 135/241/95
f 118/216/96 126/239/96 135/241/96
f 122/220/97 121/219/97 129/227/97
f 122/220/98 116/213/98 121/219/98
f 121/219/99 120/218/99 130/229/99
f 124/222/100 119/242/100 131/231/100
f 124/222/101 115/211/101 119/242/101
f 115/211/102 114/210/102 119/242/102
f 119/217/103 123/221/103 133/235/103
f 119/217/104 113/207/104 123/221/104
f 118/216/105 125/223/105 126/239/105
f 118/216/106 117/215/106 125/223/106
f 116/213/107 115/211/107 120/218/107
f 113/207/108 112/243/108 117/215/108
