# Blender v2.81 (sub 16) OBJ File: 'BlenderNatureAsset.blend'
# www.blender.org
mtllib Rock.mtl
o caillou1_Icosphere
v 0.004871 0.048148 0.283232
v 1.005989 0.049283 1.002950
v -0.373504 0.048148 1.447770
v 1.866467 0.067201 1.507698
v 2.158041 0.066735 0.283232
v -1.251390 0.048148 0.283232
v -0.373504 0.048148 -0.881307
v 0.995490 0.048148 -0.436487
v 2.733651 0.885128 1.014850
v -0.638864 0.048147 2.264478
v 0.617118 0.048147 2.167500
v -0.184998 0.712925 2.612331
v -2.708713 -0.078385 0.023629
v -1.995232 0.048148 1.447774
v -2.882127 0.730224 0.896374
v -0.638864 0.048148 -1.698015
v -1.828477 -0.053531 -1.089923
v -1.444679 0.740134 -1.899473
v 1.690224 0.048148 -0.941235
v 0.617118 0.048148 -1.601036
v 1.373882 0.782172 -1.601048
v 1.456533 0.791106 2.167512
v -1.842177 0.712923 2.167512
v -2.947990 0.539555 -0.934260
v 0.023496 0.782056 -2.214487
v 2.497180 0.860157 -0.424046
v 0.373616 1.815855 2.264478
v 1.887206 2.082793 1.459884
v 0.276860 2.823797 1.678925
v -2.295554 1.723499 1.507698
v -1.407604 1.720363 2.167500
v -1.120970 2.640969 1.154274
v -1.818081 1.753024 -1.448166
v -2.321980 1.947435 0.161716
v -0.914414 2.547322 -0.600529
v 0.675581 1.823624 -1.998715
v -0.530371 2.006189 -2.292704
v 0.440386 2.597072 -1.083920
v 2.699317 2.033833 0.318755
v 1.800169 2.069336 -0.870016
v 1.519918 2.777873 0.517508
v 0.233577 2.837054 0.916397
vn 0.0003 -1.0000 0.0002
vn 0.0007 -1.0000 0.0001
vn 0.0002 -1.0000 -0.0001
vn 0.0180 -0.9998 0.0048
vn 0.0164 -0.9999 0.0015
vn 0.0120 -0.9999 0.0104
vn -0.0000 -1.0000 -0.0000
vn 0.0001 -1.0000 0.0002
vn 0.7261 -0.6655 0.1731
vn 0.0668 -0.4980 0.8646
vn -0.7021 -0.5865 0.4039
vn -0.3256 -0.5934 -0.7361
vn 0.4609 -0.4752 -0.7496
vn 0.6559 -0.2708 0.7046
vn -0.2463 -0.3120 0.9176
vn -0.9597 -0.2739 0.0631
vn -0.1741 -0.4568 -0.8724
vn 0.7031 -0.2833 -0.6522
vn 0.3374 0.4969 0.7995
vn -0.4055 0.7307 0.5492
vn -0.4926 0.8322 -0.2547
vn 0.2588 0.7694 -0.5840
vn 0.4643 0.8232 -0.3266
vn 0.0001 -1.0000 -0.0000
vn 0.0179 -0.9998 0.0050
vn 0.0155 -0.9999 0.0012
vn 0.0086 -0.9999 0.0119
vn 0.0792 -0.9960 0.0408
vn 0.0776 -0.9957 0.0496
vn 0.0777 -0.9958 0.0493
vn 0.0731 -0.9970 -0.0237
vn 0.0629 -0.9969 0.0474
vn 0.0793 -0.9960 0.0404
vn 0.9847 -0.0679 -0.1606
vn 0.8628 -0.4876 -0.1333
vn 0.7644 -0.5792 -0.2832
vn 0.2498 0.1739 0.9525
vn 0.2629 -0.2970 0.9180
vn 0.4174 -0.4716 0.7768
vn -0.7718 0.0666 0.6323
vn -0.6947 -0.4488 0.5622
vn -0.4011 -0.6288 0.6661
vn -0.5484 0.1633 -0.8201
vn -0.3957 -0.5550 -0.7317
vn -0.4727 -0.7896 -0.3913
vn 0.4126 -0.0702 -0.9082
vn 0.3805 -0.3923 -0.8375
vn 0.0610 -0.6107 -0.7896
vn 0.3950 0.3366 0.8548
vn 0.6507 0.1863 0.7361
vn 0.7712 0.3466 0.5340
vn -0.5771 0.2489 0.7778
vn -0.2576 0.1111 0.9598
vn -0.0690 0.3317 0.9409
vn -0.7579 0.5758 -0.3068
vn -0.9107 0.4129 -0.0102
vn -0.8816 0.4626 0.0943
vn 0.2435 0.0483 -0.9687
vn -0.2031 -0.1537 -0.9670
vn -0.5629 0.1543 -0.8120
vn 0.7787 0.2342 -0.5820
vn 0.7095 0.1554 -0.6874
vn 0.6767 0.1812 -0.7136
vn 0.0504 0.9986 0.0145
vn 0.4256 0.7995 0.4239
vn 0.5411 0.7636 0.3523
vn -0.1389 0.9900 0.0251
vn -0.3177 0.7448 0.5868
vn -0.0737 0.4957 0.8654
vn -0.1551 0.9854 -0.0708
vn -0.4350 0.8950 -0.0990
vn -0.5817 0.8004 0.1446
vn -0.0816 0.9885 -0.1270
vn -0.1527 0.9307 -0.3323
vn -0.4019 0.8418 -0.3604
vn 0.0090 0.9929 -0.1182
vn 0.3862 0.8508 -0.3564
vn 0.3770 0.7528 -0.5396
usemtl Material.000
s 1
f 1//1 2//2 3//3
f 4//4 2//5 5//6
f 1//1 3//3 6//7
f 1//1 6//7 7//7
f 1//1 7//7 8//8
f 4//9 5//9 9//9
f 10//10 11//10 12//10
f 13//11 14//11 15//11
f 16//12 17//12 18//12
f 19//13 20//13 21//13
f 4//14 9//14 22//14
f 10//15 12//15 23//15
f 13//16 15//16 24//16
f 16//17 18//17 25//17
f 19//18 21//18 26//18
f 27//19 28//19 29//19
f 30//20 31//20 32//20
f 33//21 34//21 35//21
f 36//22 37//22 38//22
f 39//23 40//23 41//23
f 3//3 11//24 10//7
f 3//3 2//2 11//24
f 2//5 4//4 11//25
f 5//6 8//26 19//27
f 5//6 2//5 8//26
f 2//2 1//1 8//8
f 6//28 14//29 13//30
f 6//7 3//3 14//7
f 3//3 10//7 14//7
f 7//31 17//31 16//31
f 7//32 6//32 17//32
f 6//28 13//30 17//33
f 8//8 20//7 19//7
f 8//8 7//7 20//7
f 7//7 16//7 20//7
f 9//34 26//34 39//34
f 9//35 5//35 26//35
f 5//36 19//36 26//36
f 12//37 22//37 27//37
f 12//38 11//38 22//38
f 11//39 4//39 22//39
f 15//40 23//40 30//40
f 15//41 14//41 23//41
f 14//42 10//42 23//42
f 18//43 24//43 33//43
f 18//44 17//44 24//44
f 17//45 13//45 24//45
f 21//46 25//46 36//46
f 21//47 20//47 25//47
f 20//48 16//48 25//48
f 22//49 28//49 27//49
f 22//50 9//50 28//50
f 9//51 39//51 28//51
f 23//52 31//52 30//52
f 23//53 12//53 31//53
f 12//54 27//54 31//54
f 24//55 34//55 33//55
f 24//56 15//56 34//56
f 15//57 30//57 34//57
f 25//58 37//58 36//58
f 25//59 18//59 37//59
f 18//60 33//60 37//60
f 26//61 40//61 39//61
f 26//62 21//62 40//62
f 21//63 36//63 40//63
f 29//64 41//64 42//64
f 29//65 28//65 41//65
f 28//66 39//66 41//66
f 32//67 29//67 42//67
f 32//68 31//68 29//68
f 31//69 27//69 29//69
f 35//70 32//70 42//70
f 35//71 34//71 32//71
f 34//72 30//72 32//72
f 38//73 35//73 42//73
f 38//74 37//74 35//74
f 37//75 33//75 35//75
f 41//76 38//76 42//76
f 41//77 40//77 38//77
f 40//78 36//78 38//78
