# Blender v2.81 (sub 16) OBJ File: ''
# www.blender.org
mtllib WinstonsBana.mtl
o Cylinder.002
v 0.000000 -0.999994 -20.000000
v 0.963759 2.762522 -12.465440
v 3.387696 2.762521 -12.226702
v 3.901806 -0.999994 -19.615705
v 5.718482 2.762521 -11.519667
v 7.653669 -0.999994 -18.477591
v 7.866548 2.762521 -10.371500
v 11.111404 -0.999994 -16.629393
v 9.749341 2.762521 -8.826330
v 14.142136 -0.999996 -14.142136
v 11.294514 2.762520 -6.943534
v 16.629393 -0.999996 -11.111403
v 12.442675 2.762519 -4.795471
v 18.477591 -0.999998 -7.653668
v 13.149712 2.762518 -2.464684
v 19.615705 -0.999998 -3.901807
v 13.388450 2.762517 -0.040749
v 20.000000 -1.000000 -0.000002
v 13.149714 2.762517 2.383188
v 19.615705 -1.000002 3.901804
v 12.442677 2.762516 4.713975
v 18.477591 -1.000002 7.653666
v 11.294514 2.762516 6.862040
v 16.629393 -1.000004 11.111403
v 9.749341 2.762515 8.744835
v 14.021325 -0.982919 14.021325
v 7.866547 2.762514 10.290008
v 11.111403 -1.000006 16.629393
v 5.718481 2.762514 11.438170
v 7.653666 -1.000006 18.477592
v 3.387692 2.762514 12.145207
v 3.901802 -1.000006 19.615705
v 0.963755 2.762514 12.383944
v -0.000007 -1.000006 20.000000
v -1.460183 2.762514 12.145205
v -3.901814 -1.000006 19.615704
v -3.790970 2.762514 11.438168
v -7.653677 -1.000006 18.477587
v -5.939035 2.762514 10.290002
v -11.111414 -1.000006 16.629387
v -7.821830 2.762515 8.744831
v -14.142145 -1.000004 14.142127
v -9.367001 2.762516 6.862034
v -16.629400 -1.000004 11.111393
v -10.515165 2.762516 4.713968
v -18.477596 -1.000002 7.653654
v -11.222198 2.762517 2.383179
v -19.615709 -1.000002 3.901789
v -11.460933 2.762517 -0.040759
v -20.000000 -1.000000 -0.000019
v -11.222194 2.762518 -2.464697
v -19.615702 -0.999998 -3.901827
v -10.515155 2.762519 -4.795484
v -18.477581 -0.999998 -7.653689
v -9.366986 2.762520 -6.943548
v -16.629379 -0.999996 -11.111425
v -7.821813 2.762521 -8.826343
v -14.142118 -0.999996 -14.142153
v -5.939016 2.762521 -10.371511
v -11.111382 -0.999994 -16.629408
v -3.790949 2.762521 -11.519673
v -7.653642 -0.999994 -18.477602
v -1.460159 2.762521 -12.226706
v -3.901776 -0.999994 -19.615711
v 18.477591 0.000002 -7.653668
v 16.629393 0.000004 -11.111403
v 0.000000 0.000006 -20.000000
v 3.901806 0.000006 -19.615705
v 7.653669 0.000006 -18.477591
v 11.111404 0.000006 -16.629393
v 14.142136 0.000004 -14.142136
v 19.615705 0.000002 -3.901807
v 20.000000 0.000000 -0.000002
v 19.615705 -0.000002 3.901804
v 18.477591 -0.000002 7.653666
v 16.629393 -0.000004 11.111403
v 14.021325 0.017081 14.021325
v 11.111403 -0.000006 16.629393
v 7.653666 -0.000006 18.477592
v 3.901802 -0.000006 19.615705
v -0.000007 -0.000006 20.000000
v -3.901814 -0.000006 19.615704
v -7.653677 -0.000006 18.477587
v -11.111414 -0.000006 16.629387
v -14.142145 -0.000004 14.142127
v -16.629400 -0.000004 11.111393
v -18.477596 -0.000002 7.653654
v -19.615709 -0.000002 3.901789
v -20.000000 0.000000 -0.000019
v -19.615702 0.000002 -3.901827
v -18.477581 0.000002 -7.653689
v -16.629379 0.000004 -11.111425
v -14.142118 0.000004 -14.142153
v -11.111382 0.000006 -16.629408
v -7.653642 0.000006 -18.477602
v -3.868448 0.049712 -19.639988
v -1.000000 -1.000000 1.000000
v -1.000000 1.000000 1.000000
v -1.000000 -1.000000 -1.000000
v -1.000000 1.000000 -1.000000
v 1.000000 -1.000000 1.000000
v 1.000000 1.000000 1.000000
v 1.000000 -1.000000 -1.000000
v 1.000000 1.000000 -1.000000
v -0.202654 16.063200 -0.398569
v -0.202654 16.063200 -2.198569
v 1.597346 16.063200 -0.398569
v 1.597346 16.063200 -2.198569
vt 0.375000 0.000000
vt 0.625000 0.000000
vt 0.625000 0.250000
vt 0.375000 0.250000
vt 0.625000 0.500000
vt 0.375000 0.500000
vt 0.625000 0.750000
vt 0.375000 0.750000
vt 0.625000 1.000000
vt 0.375000 1.000000
vt 0.125000 0.500000
vt 0.125000 0.750000
vt 0.625000 0.250000
vt 0.625000 0.500000
vt 0.875000 0.500000
vt 0.875000 0.750000
vt 0.625000 0.750000
vt 0.625000 0.000000
vt 0.625000 1.000000
vt 1.000000 0.500000
vt 1.000000 1.000000
vt 0.968750 1.000000
vt 0.968750 0.500000
vt 0.937500 1.000000
vt 0.937500 0.500000
vt 0.906250 1.000000
vt 0.906250 0.500000
vt 0.875000 1.000000
vt 0.875000 0.500000
vt 0.843750 1.000000
vt 0.843750 0.500000
vt 0.812500 1.000000
vt 0.812500 0.500000
vt 0.781250 1.000000
vt 0.781250 0.500000
vt 0.750000 1.000000
vt 0.750000 0.500000
vt 0.718750 1.000000
vt 0.718750 0.500000
vt 0.687500 1.000000
vt 0.687500 0.500000
vt 0.656250 1.000000
vt 0.656250 0.500000
vt 0.625000 1.000000
vt 0.625000 0.500000
vt 0.593750 1.000000
vt 0.593750 0.500000
vt 0.562500 1.000000
vt 0.562500 0.500000
vt 0.531250 1.000000
vt 0.531250 0.500000
vt 0.500000 1.000000
vt 0.500000 0.500000
vt 0.468750 1.000000
vt 0.468750 0.500000
vt 0.437500 1.000000
vt 0.437500 0.500000
vt 0.406250 1.000000
vt 0.406250 0.500000
vt 0.375000 1.000000
vt 0.375000 0.500000
vt 0.343750 1.000000
vt 0.343750 0.500000
vt 0.312500 1.000000
vt 0.312500 0.500000
vt 0.281250 1.000000
vt 0.281250 0.500000
vt 0.250000 1.000000
vt 0.250000 0.500000
vt 0.218750 1.000000
vt 0.218750 0.500000
vt 0.187500 1.000000
vt 0.187500 0.500000
vt 0.156250 1.000000
vt 0.156250 0.500000
vt 0.125000 1.000000
vt 0.125000 0.500000
vt 0.093750 1.000000
vt 0.093750 0.500000
vt 0.062500 1.000000
vt 0.062500 0.500000
vt 0.296822 0.485388
vt 0.250000 0.490000
vt 0.203179 0.485389
vt 0.158156 0.471731
vt 0.116663 0.449553
vt 0.080295 0.419706
vt 0.050447 0.383337
vt 0.028269 0.341844
vt 0.014612 0.296822
vt 0.010000 0.250000
vt 0.014611 0.203179
vt 0.028269 0.158156
vt 0.050447 0.116663
vt 0.080294 0.080294
vt 0.116663 0.050447
vt 0.158156 0.028269
vt 0.203178 0.014612
vt 0.250000 0.010000
vt 0.296822 0.014612
vt 0.341844 0.028269
vt 0.383337 0.050447
vt 0.419706 0.080294
vt 0.449553 0.116663
vt 0.471731 0.158156
vt 0.485388 0.203178
vt 0.490000 0.250000
vt 0.485388 0.296822
vt 0.471731 0.341844
vt 0.449553 0.383337
vt 0.419706 0.419706
vt 0.383337 0.449553
vt 0.341844 0.471731
vt 0.031250 1.000000
vt 0.031250 0.500000
vt 0.000000 1.000000
vt 0.000000 0.500000
vt 0.812500 0.500000
vt 0.843750 0.500000
vt 0.750000 0.490000
vt 0.796822 0.485388
vt 0.841844 0.471731
vt 0.883337 0.449553
vt 0.919706 0.419706
vt 0.949553 0.383337
vt 0.971731 0.341844
vt 0.985388 0.296822
vt 0.990000 0.250000
vt 0.985388 0.203178
vt 0.971731 0.158156
vt 0.949553 0.116663
vt 0.919706 0.080294
vt 0.883337 0.050447
vt 0.841844 0.028269
vt 0.796822 0.014612
vt 0.750000 0.010000
vt 0.703178 0.014612
vt 0.658156 0.028269
vt 0.616663 0.050447
vt 0.580294 0.080294
vt 0.550447 0.116663
vt 0.528269 0.158156
vt 0.514611 0.203179
vt 0.510000 0.250000
vt 0.514612 0.296822
vt 0.528269 0.341844
vt 0.550447 0.383337
vt 0.580295 0.419706
vt 0.616663 0.449553
vt 0.658156 0.471731
vt 0.703179 0.485389
vt 0.531250 0.500000
vt 0.562500 0.500000
vt 0.250000 0.500000
vt 0.281250 0.500000
vt 0.937500 0.500000
vt 0.968750 0.500000
vt 0.656250 0.500000
vt 0.687500 0.500000
vt 0.375000 0.500000
vt 0.406250 0.500000
vt 0.093750 0.500000
vt 0.125000 0.500000
vt 0.781250 0.500000
vt 0.500000 0.500000
vt 0.218750 0.500000
vt 0.906250 0.500000
vt 0.625000 0.500000
vt 0.343750 0.500000
vt 0.062500 0.500000
vt 0.750000 0.500000
vt 0.468750 0.500000
vt 0.187500 0.500000
vt 0.875000 0.500000
vt 0.593750 0.500000
vt 0.312500 0.500000
vt 0.718750 0.500000
vt 0.437500 0.500000
vt 0.156250 0.500000
vt 0.031250 0.500000
vt 1.000000 0.500000
vt 0.000000 0.500000
vn -1.0000 -0.0000 0.0000
vn 0.0000 0.0000 -1.0000
vn 1.0000 0.0000 0.0000
vn 0.0000 -0.0000 1.0000
vn 0.0000 -1.0000 -0.0000
vn 0.0000 -0.0793 -0.9968
vn 0.0000 1.0000 0.0000
vn 0.9992 -0.0396 0.0000
vn -0.9986 0.0529 0.0000
vn 0.0000 0.0924 0.9957
vn 0.0444 0.8915 -0.4509
vn 0.1342 0.8868 -0.4422
vn 0.2220 0.8822 -0.4153
vn 0.3038 0.8778 -0.3702
vn 0.3756 0.8740 -0.3082
vn 0.4333 0.8710 -0.2316
vn 0.4737 0.8689 -0.1437
vn 0.4942 0.8680 -0.0487
vn 0.4938 0.8682 0.0486
vn 0.4724 0.8697 0.1433
vn 0.4314 0.8722 0.2306
vn 0.3690 0.8738 0.3166
vn 0.3128 0.8771 0.3645
vn 0.2202 0.8842 0.4120
vn 0.1330 0.8888 0.4385
vn 0.0440 0.8935 0.4470
vn -0.0432 0.8979 0.4381
vn -0.1254 0.9019 0.4133
vn -0.2000 0.9055 0.3742
vn -0.2651 0.9085 0.3230
vn -0.3188 0.9110 0.2617
vn -0.3602 0.9128 0.1925
vn -0.3884 0.9139 0.1178
vn -0.4027 0.9145 0.0397
vn -0.4031 0.9143 -0.0397
vn -0.3893 0.9135 -0.1181
vn -0.3616 0.9121 -0.1933
vn -0.3205 0.9100 -0.2630
vn -0.2667 0.9073 -0.3250
vn -0.2015 0.9040 -0.3770
vn -0.1264 0.9002 -0.4166
vn -0.0435 0.8960 -0.4419
vn -0.8315 0.0000 0.5556
vn -0.9239 0.0000 0.3827
vn 0.0000 -1.0000 -0.0001
vn -0.3827 0.0000 -0.9239
vn -0.1951 0.0000 -0.9808
vn 0.9808 0.0000 -0.1951
vn -0.1951 0.0000 0.9808
vn -0.3827 0.0000 0.9239
vn -0.9239 0.0000 -0.3827
vn -0.8193 0.0000 -0.5734
vn -0.8191 0.0000 -0.5737
vn 0.5556 0.0000 -0.8315
vn 0.7071 0.0000 -0.7071
vn 0.7071 0.0000 0.7071
vn 0.5556 0.0000 0.8315
vn -0.9808 0.0000 0.1951
vn 0.9808 0.0000 0.1951
vn -0.5556 0.0000 0.8315
vn -0.7071 0.0000 -0.7071
vn 0.8315 0.0000 -0.5556
vn 0.3835 0.0033 0.9236
vn 0.3831 0.0033 0.9237
vn 0.1951 0.0000 -0.9808
vn 0.9239 0.0000 0.3827
vn -0.7071 0.0000 0.7071
vn -0.5734 0.0000 -0.8193
vn -0.5737 0.0000 -0.8191
vn 0.9239 0.0000 -0.3827
vn -0.9808 -0.0000 -0.1951
vn 0.3827 0.0000 -0.9239
vn 0.8315 0.0000 0.5556
vn 0.1969 0.0084 0.9804
vn 0.1924 0.0085 0.9813
vn -0.0013 0.0051 1.0000
vn -0.0009 0.0052 1.0000
usemtl None.002
s off
f 97/1/1 98/2/1 100/3/1 99/4/1
f 99/4/2 100/3/2 104/5/2 103/6/2
f 103/6/3 104/5/3 102/7/3 101/8/3
f 101/8/4 102/7/4 98/9/4 97/10/4
f 99/11/5 103/6/5 101/8/5 97/12/5
f 104/5/6 100/3/6 106/13/6 108/14/6
f 108/14/7 106/15/7 105/16/7 107/17/7
f 102/7/8 104/5/8 108/14/8 107/17/8
f 100/3/9 98/2/9 105/18/9 106/13/9
f 98/9/10 102/7/10 107/17/10 105/19/10
s 1
f 1/20/11 2/21/11 3/22/11 4/23/11
f 4/23/12 3/22/12 5/24/12 6/25/12
f 6/25/13 5/24/13 7/26/13 8/27/13
f 8/27/14 7/26/14 9/28/14 10/29/14
f 10/29/15 9/28/15 11/30/15 12/31/15
f 12/31/16 11/30/16 13/32/16 14/33/16
f 14/33/17 13/32/17 15/34/17 16/35/17
f 16/35/18 15/34/18 17/36/18 18/37/18
f 18/37/19 17/36/19 19/38/19 20/39/19
f 20/39/20 19/38/20 21/40/20 22/41/20
f 22/41/21 21/40/21 23/42/21 24/43/21
f 24/43/22 23/42/22 25/44/22 26/45/22
f 26/45/23 25/44/23 27/46/23 28/47/23
f 28/47/24 27/46/24 29/48/24 30/49/24
f 30/49/25 29/48/25 31/50/25 32/51/25
f 32/51/26 31/50/26 33/52/26 34/53/26
f 34/53/27 33/52/27 35/54/27 36/55/27
f 36/55/28 35/54/28 37/56/28 38/57/28
f 38/57/29 37/56/29 39/58/29 40/59/29
f 40/59/30 39/58/30 41/60/30 42/61/30
f 42/61/31 41/60/31 43/62/31 44/63/31
f 44/63/32 43/62/32 45/64/32 46/65/32
f 46/65/33 45/64/33 47/66/33 48/67/33
f 48/67/34 47/66/34 49/68/34 50/69/34
f 50/69/35 49/68/35 51/70/35 52/71/35
f 52/71/36 51/70/36 53/72/36 54/73/36
f 54/73/37 53/72/37 55/74/37 56/75/37
f 56/75/38 55/74/38 57/76/38 58/77/38
f 58/77/39 57/76/39 59/78/39 60/79/39
f 60/79/40 59/78/40 61/80/40 62/81/40
f 3/82/7 2/83/7 63/84/7 61/85/7 59/86/7 57/87/7 55/88/7 53/89/7 51/90/7 49/91/7 47/92/7 45/93/7 43/94/7 41/95/7 39/96/7 37/97/7 35/98/7 33/99/7 31/100/7 29/101/7 27/102/7 25/103/7 23/104/7 21/105/7 19/106/7 17/107/7 15/108/7 13/109/7 11/110/7 9/111/7 7/112/7 5/113/7
f 62/81/41 61/80/41 63/114/41 64/115/41
f 64/115/42 63/114/42 2/116/42 1/117/42
f 12/31/43 14/33/44 65/118/44 66/119/43
f 67/120/45 68/121/45 69/122/45 70/123/45 71/124/45 66/125/45 65/126/45 72/127/45 73/128/45 74/129/45 75/130/45 76/131/45 77/132/45 78/133/45 79/134/45 80/135/45 81/136/45 82/137/45 83/138/45 84/139/45 85/140/45 86/141/45 87/142/45 88/143/45 89/144/45 90/145/45 91/146/45 92/147/45 93/148/45 94/149/45 95/150/45 96/151/45
f 30/49/46 32/51/47 80/152/47 79/153/46
f 48/67/48 50/69/3 89/154/3 88/155/48
f 4/23/49 6/25/50 69/156/50 68/157/49
f 22/41/51 24/43/52 76/158/53 75/159/51
f 40/59/54 42/61/55 85/160/55 84/161/54
f 58/77/56 60/79/57 94/162/57 93/163/56
f 14/33/44 16/35/58 72/164/58 65/118/44
f 32/51/47 34/53/2 81/165/2 80/152/47
f 50/69/3 52/71/59 90/166/59 89/154/3
f 6/25/50 8/27/60 70/167/60 69/156/50
f 24/43/52 26/45/61 77/168/61 76/158/53
f 42/61/55 44/63/62 86/169/62 85/160/55
f 60/79/57 62/81/63 95/170/64 94/162/57
f 16/35/58 18/37/1 73/171/1 72/164/58
f 34/53/2 36/55/65 82/172/65 81/165/2
f 52/71/59 54/73/66 91/173/66 90/166/59
f 8/27/60 10/29/67 71/174/67 70/167/60
f 26/45/61 28/47/68 78/175/69 77/168/61
f 44/63/62 46/65/70 87/176/70 86/169/62
f 18/37/1 20/39/71 74/177/71 73/171/1
f 36/55/65 38/57/72 83/178/72 82/172/65
f 54/73/66 56/75/73 92/179/73 91/173/66
f 62/81/63 64/115/74 96/180/75 95/170/64
f 10/29/67 12/31/43 66/119/43 71/174/67
f 28/47/68 30/49/46 79/153/46 78/175/69
f 46/65/70 48/67/48 88/155/48 87/176/70
f 1/20/76 4/23/49 68/157/49 67/181/77
f 64/115/74 1/117/76 67/182/77 96/180/75
f 20/39/71 22/41/51 75/159/51 74/177/71
f 38/57/72 40/59/54 84/161/54 83/178/72
f 56/75/73 58/77/56 93/163/56 92/179/73
